<svg width="182" height="145" viewBox="0 0 182 145" fill="none" xmlns="http://www.w3.org/2000/svg">
<path d="M151.884 119.529C151.884 119.529 122.128 88.8715 140.523 65.0672C163.065 35.6724 140.883 23.5899 110.407 7.72036C83.8973 -6.1655 35.3869 -0.394755 17.714 17.6388C-8.97571 45.2302 -2.30329 79.494 16.632 119.348L151.884 119.529Z" fill="#EDEDED"/>
<path d="M182 3.75299H97.4225V88.3305H182V3.75299Z" fill="#FC76B2"/>
<path d="M182 3.75299H97.4225V11.6878H182V3.75299Z" fill="#E85DA3"/>
<path d="M102.652 9.88446C103.549 9.88446 104.275 9.07707 104.275 8.0811C104.275 7.08513 103.549 6.27774 102.652 6.27774C101.756 6.27774 101.029 7.08513 101.029 8.0811C101.029 9.07707 101.756 9.88446 102.652 9.88446Z" fill="#F5F9FC"/>
<path d="M107.521 9.88446C108.418 9.88446 109.144 9.07707 109.144 8.0811C109.144 7.08513 108.418 6.27774 107.521 6.27774C106.625 6.27774 105.898 7.08513 105.898 8.0811C105.898 9.07707 106.625 9.88446 107.521 9.88446Z" fill="#F5F9FC"/>
<path d="M112.39 9.88446C113.287 9.88446 114.013 9.07707 114.013 8.0811C114.013 7.08513 113.287 6.27774 112.39 6.27774C111.494 6.27774 110.767 7.08513 110.767 8.0811C110.767 9.07707 111.494 9.88446 112.39 9.88446Z" fill="#F5F9FC"/>
<path d="M177.852 18.7209H101.029V32.7871H177.852V18.7209Z" fill="#FCB6D9"/>
<path d="M177.852 67.5919H101.029V81.6581H177.852V67.5919Z" fill="#FCB6D9"/>
<path d="M137.818 35.3118H101.029V47.7549H137.818V35.3118Z" fill="#FCE2C0"/>
<path d="M137.818 50.0994H101.029V62.5425H137.818V50.0994Z" fill="#FCE2C0"/>
<path d="M177.672 35.3118H143.769V62.5425H177.672V35.3118Z" fill="#FCB6D9"/>
<path d="M172.803 119.529C172.803 122.775 141.244 126.742 96.1601 126.742C51.0761 126.742 14.468 124.037 14.468 120.791C14.468 117.545 51.0761 114.84 96.1601 114.84C141.244 114.66 172.803 116.283 172.803 119.529Z" fill="#D8D8D8"/>
<path d="M164.147 111.954C164.147 115.201 161.442 117.906 158.196 117.906H27.6325C24.3864 117.906 21.6814 115.201 21.6814 111.954V30.2623C21.6814 27.0163 24.3864 24.3112 27.6325 24.3112H158.196C161.442 24.3112 164.147 27.0163 164.147 30.2623V111.954Z" fill="#A27CF5"/>
<path d="M158.196 24.3112H27.6325C24.3864 24.3112 21.6814 27.0163 21.6814 30.2623V41.2628H164.147V30.2623C164.147 26.8359 161.442 24.3112 158.196 24.3112Z" fill="#8461E2"/>
<path d="M36.1083 32.787C36.1083 34.41 34.8459 35.6724 33.2229 35.6724C31.5999 35.6724 30.3375 34.41 30.3375 32.787C30.3375 31.164 31.5999 29.9016 33.2229 29.9016C34.8459 29.9016 36.1083 31.164 36.1083 32.787Z" fill="#F5F9FC"/>
<path d="M43.502 32.787C43.502 34.41 42.2397 35.6724 40.6167 35.6724C38.9936 35.6724 37.7313 34.41 37.7313 32.787C37.7313 31.164 38.9936 29.9016 40.6167 29.9016C42.2397 29.9016 43.502 31.164 43.502 32.787Z" fill="#F5F9FC"/>
<path d="M50.7155 32.787C50.7155 34.41 49.4531 35.6724 47.8301 35.6724C46.2071 35.6724 44.9447 34.41 44.9447 32.787C44.9447 31.164 46.2071 29.9016 47.8301 29.9016C49.4531 29.9016 50.7155 31.164 50.7155 32.787Z" fill="#F5F9FC"/>
<path d="M87.6843 99.6917H40.0757V111.774H87.6843V99.6917Z" fill="#8461E2"/>
<path d="M141.605 99.6917H93.9961V111.774H141.605V99.6917Z" fill="#8461E2"/>
<path d="M154.048 49.9189H28.3538V93.5602H154.048V49.9189Z" fill="#8461E2"/>
<path d="M141.605 121.152L141.244 121.512C134.572 121.332 130.424 121.332 129.162 121.332C123.571 121.332 118.341 121.332 113.653 121.512L113.292 121.152V118.447L113.833 117.906L117.8 117.725C119.423 117.725 120.325 117.004 120.325 116.102C120.325 115.561 119.964 114.119 119.063 111.955L115.456 102.757C111.308 102.757 106.98 102.757 102.652 102.757C100.308 102.757 96.7011 102.757 92.1927 102.757L89.668 108.167C88.2253 112.135 87.3237 114.66 87.3237 115.742C87.3237 116.824 88.045 117.545 89.4877 117.725C90.209 117.906 91.8321 117.906 94.1764 118.086L94.7174 118.447V121.152L94.1764 121.512C88.586 121.332 84.9793 121.332 83.3563 121.332C82.0939 121.332 79.0282 121.332 74.1591 121.512L73.6181 121.152V118.266L74.1591 117.906C77.2249 117.725 79.2085 117.184 79.9299 116.102C80.6512 115.02 83.3563 109.069 87.8647 97.8884L99.7668 69.3953C100.669 67.2312 101.931 63.8049 103.734 59.4768H110.226L134.211 113.938C135.113 115.922 136.014 117.184 136.736 117.365C137.818 117.725 139.26 117.906 141.064 117.906L141.424 118.447V121.152H141.605ZM112.751 97.708L103.013 74.8054L93.8158 97.708C96.3405 97.708 99.5865 97.8884 103.554 97.8884C107.341 97.8884 110.407 97.8884 112.751 97.708Z" fill="#252956"/>
<path d="M139.621 49.3779H64.421V51.3616H139.621V49.3779Z" fill="#252956"/>
<path d="M139.801 44.3286H136.375V56.4111H139.801V44.3286Z" fill="#252956"/>
<path d="M67.8474 44.3286H64.421V56.4111H67.8474V44.3286Z" fill="#252956"/>
<path d="M53.0599 48.6567H50.8958V120.971H53.0599V48.6567Z" fill="#252956"/>
<path d="M58.2896 48.6567H45.6661V51.9027H58.2896V48.6567Z" fill="#252956"/>
<path d="M58.2896 117.725H45.6661V120.971H58.2896V117.725Z" fill="#252956"/>
<path d="M90.209 69.0346H85.1596V70.297H90.209V69.0346Z" fill="#F9B640"/>
<path d="M97.4225 69.0346H92.373V70.297H97.4225V69.0346Z" fill="#F9B640"/>
<path d="M104.636 69.0346H99.5865V70.297H104.636V69.0346Z" fill="#F9B640"/>
<path d="M111.849 69.0346H106.8V70.297H111.849V69.0346Z" fill="#F9B640"/>
<path d="M119.063 69.0346H114.013V70.297H119.063V69.0346Z" fill="#F9B640"/>
<path d="M126.096 69.0346H121.046V70.297H126.096V69.0346Z" fill="#F9B640"/>
<path d="M133.309 69.0346H128.26V70.297H133.309V69.0346Z" fill="#F9B640"/>
<path d="M140.523 69.0346H135.473V70.297H140.523V69.0346Z" fill="#F9B640"/>
<path d="M148.818 69.0346H143.769V70.297H148.818V69.0346Z" fill="#F9B640"/>
<path d="M66.7653 69.0346H61.7159V70.297H66.7653V69.0346Z" fill="#F9B640"/>
<path d="M75.2411 69.0346H70.1917V70.297H75.2411V69.0346Z" fill="#F9B640"/>
<path d="M151.343 90.4946H150.081V95.544H151.343V90.4946Z" fill="#F9B640"/>
<path d="M151.343 83.2812H150.081V88.3306H151.343V83.2812Z" fill="#F9B640"/>
<path d="M151.343 76.248H150.081V81.2975H151.343V76.248Z" fill="#F9B640"/>
<path d="M151.343 69.0346H150.081V74.084H151.343V69.0346Z" fill="#F9B640"/>
<path d="M151.343 104.2H150.081V109.249H151.343V104.2Z" fill="#F9B640"/>
<path d="M151.343 97.1669H150.081V102.216H151.343V97.1669Z" fill="#F9B640"/>
<path d="M151.343 118.266H150.081V123.316H151.343V118.266Z" fill="#F9B640"/>
<path d="M151.343 111.233H150.081V116.283H151.343V111.233Z" fill="#F9B640"/>
<path d="M40.797 88.6912H39.5347V93.7406H40.797V88.6912Z" fill="#FC76B2"/>
<path d="M40.797 81.4778H39.5347V86.5272H40.797V81.4778Z" fill="#FC76B2"/>
<path d="M40.797 74.4447H39.5347V79.4941H40.797V74.4447Z" fill="#FC76B2"/>
<path d="M40.797 67.2313H39.5347V72.2807H40.797V67.2313Z" fill="#FC76B2"/>
<path d="M40.797 102.397H39.5347V107.446H40.797V102.397Z" fill="#FC76B2"/>
<path d="M40.797 95.1833H39.5347V100.233H40.797V95.1833Z" fill="#FC76B2"/>
<path d="M40.797 116.463H39.5347V121.512H40.797V116.463Z" fill="#FC76B2"/>
<path d="M40.797 109.25H39.5347V114.299H40.797V109.25Z" fill="#FC76B2"/>
<path d="M167.393 26.295H156.392V98.79H167.393V26.295Z" fill="#414682"/>
<path d="M165.229 28.2786H158.737V34.9511H165.229V28.2786Z" fill="#F9B640"/>
<path d="M165.229 37.1152H158.737V43.7876H165.229V37.1152Z" fill="#FC76B2"/>
<path d="M165.229 45.9517H158.737V52.6241H165.229V45.9517Z" fill="#A27CF5"/>
<path d="M165.229 54.6078H158.737V61.2802H165.229V54.6078Z" fill="#E03D51"/>
<path d="M165.229 63.4441H158.737V70.1165H165.229V63.4441Z" fill="#F5F9FC"/>
<path d="M165.229 72.2806H158.737V78.9531H165.229V72.2806Z" fill="#252956"/>
<path d="M165.229 80.9367H158.737V87.6091H165.229V80.9367Z" fill="#C92F3B"/>
<path d="M165.229 89.7733H158.737V96.4457H165.229V89.7733Z" fill="#F9B640"/>
<path d="M76.6838 126.742C76.5035 125.66 77.4052 120.791 81.7332 123.857C86.0613 127.103 91.1107 140.628 90.75 142.251C90.5697 143.874 87.6843 143.153 87.6843 143.153C87.6843 143.153 77.4052 133.414 76.6838 126.742Z" fill="#EE9D7F"/>
<path d="M87.3236 142.972C87.3236 142.972 88.4056 144.235 89.4877 144.776C90.5697 145.497 95.6191 141.89 93.6354 141.53C92.0124 141.169 90.3893 142.431 90.209 141.89C89.8483 141.53 87.3236 142.972 87.3236 142.972Z" fill="#EE9D7F"/>
<path d="M88.045 114.479C87.504 113.578 85.881 108.889 90.9304 109.971C95.9798 110.873 106.62 120.43 107.161 122.053C107.702 123.496 104.997 124.037 104.997 124.037C104.997 124.037 91.6517 119.889 88.045 114.479Z" fill="#EE9D7F"/>
<path d="M104.456 123.857C104.456 123.857 106.079 124.578 107.161 124.578C108.423 124.578 110.948 119.529 109.144 120.07C107.702 120.43 106.8 122.234 106.259 121.873C105.898 121.512 104.456 123.857 104.456 123.857Z" fill="#EE9D7F"/>
<path d="M70.7327 122.955C76.6838 122.955 95.4388 113.397 92.1927 110.512C88.7663 107.627 70.5524 111.053 67.8474 113.037C63.88 115.922 66.7654 122.955 70.7327 122.955Z" fill="#F28F19"/>
<path d="M59.9126 113.036C59.9126 113.036 83.8973 121.332 82.2742 126.021C81.5529 128.365 78.6675 129.627 75.6018 129.267C68.9294 128.726 62.0766 125.48 60.0929 124.037C56.1255 121.152 55.9452 114.479 59.9126 113.036Z" fill="#F4A517"/>
<path d="M65.3227 84.1828C67.667 86.1665 63.88 92.1176 69.8311 95.003C71.8148 95.9046 70.5524 101.675 64.2407 101.315C57.9289 100.954 53.6008 97.8883 55.4042 88.8715C56.8469 81.8384 62.9783 82.3794 65.3227 84.1828Z" fill="#963734"/>
<path d="M67.126 93.1997C67.8474 93.0193 70.1917 93.5603 70.9131 95.7243C71.8147 98.6097 70.7327 104.561 73.6181 107.266C76.6838 109.971 79.3889 109.25 81.1922 108.889C82.9956 108.528 83.7169 107.627 84.7989 107.446C85.881 107.446 85.8809 108.709 83.1759 109.971C81.7332 110.512 75.4215 114.299 71.2737 111.594C65.503 107.987 62.4373 93.7407 67.126 93.1997Z" fill="#EE9D7F"/>
<path d="M65.1423 86.5272C65.1423 86.5272 64.962 90.8553 68.0277 94.6423C69.2901 96.2654 56.4862 97.8884 56.4862 97.8884L60.4536 88.8716L65.1423 86.5272Z" fill="#872A2A"/>
<path d="M70.5524 96.2653C69.6507 91.5766 63.339 92.1176 58.6502 93.921C55.7649 95.003 50.8958 96.9867 54.3222 103.118C56.6665 107.446 58.1092 109.61 55.7649 114.479C55.4042 115.201 55.9452 113.758 55.7649 114.479C58.8306 115.742 60.6339 114.119 64.2406 114.119C66.9457 114.119 68.749 113.217 71.0934 112.496C70.0114 109.069 70.0114 112.496 70.0114 112.315C67.667 106.003 71.2737 100.233 70.5524 96.2653Z" fill="#EE9D7F"/>
<path d="M57.9289 98.4293C57.9289 98.4293 59.5519 100.593 60.2733 102.216C60.9946 103.839 60.9946 108.708 60.9946 108.708L56.6665 108.167L57.9289 98.4293Z" fill="#E67052"/>
<path d="M71.6344 112.315C70.1917 108.348 69.8311 107.807 71.0934 105.462C73.7985 100.233 66.585 92.8389 66.585 92.8389L64.7817 92.6586C69.6507 98.0686 68.7491 100.233 67.126 100.593C61.8963 101.675 58.4699 94.1013 58.4699 94.1013L56.6665 94.8226C56.6665 94.8226 59.5519 96.9866 59.9126 101.856C60.2733 107.626 55.9452 107.085 55.9452 107.085C56.3059 109.069 57.2076 109.43 56.1255 112.676L54.8632 115.02C60.0929 116.643 71.6344 115.561 71.6344 112.315Z" fill="#FCDCDA"/>
<path d="M60.4536 88.8715C60.4536 88.8715 61.1749 91.9372 60.2733 93.3799C59.5519 94.2816 64.7817 96.626 64.6013 95.3636C64.421 93.7406 63.5193 92.8389 64.6013 91.0356L60.4536 88.8715Z" fill="#E67052"/>
<path d="M64.0603 84.3631C65.3227 85.8058 66.585 91.5765 65.1423 92.8389C64.421 93.3799 61.8963 92.6585 60.2733 89.9535C59.5519 88.8715 58.8306 86.8878 60.0929 84.9041C60.6339 84.1827 62.6176 82.7401 64.0603 84.3631Z" fill="#EE9D7F"/>
<path d="M65.1423 85.4451C65.3227 86.3468 65.3227 86.7074 63.5193 86.5271C61.3553 86.1664 61.5356 87.7895 61.8963 88.5108C62.4373 90.1338 59.9126 88.5108 60.6339 90.4945C61.3553 92.4782 59.0109 89.9535 58.8306 89.7732C58.6502 89.4125 57.9289 88.1501 59.3716 85.4451C60.6339 82.3794 64.7817 82.9204 65.1423 85.4451Z" fill="#963734"/>
<path d="M72.1754 120.07L65.1423 114.84L78.3068 110.331L72.1754 120.07Z" fill="#EA68C3"/>
<path d="M76.6838 109.971L88.9467 106.725L84.9793 115.922L72.1754 120.07L76.6838 109.971Z" fill="#FE88D4"/>
<path d="M56.1255 106.725C56.4862 108.709 57.3879 109.069 56.3059 112.315L55.0435 114.66C57.3879 115.561 61.3553 115.742 64.6013 115.381C62.6176 115.201 59.0109 111.955 62.257 111.053C65.503 110.151 68.0277 108.709 67.667 107.446C67.667 107.446 62.0766 108.528 60.8143 108.168C59.5519 107.807 59.9126 101.856 59.9126 101.856H59.7323C60.0929 107.266 56.1255 106.725 56.1255 106.725Z" fill="#EFBEBD"/>
<path d="M55.7649 95.7243C55.7649 95.7243 57.3879 95.544 57.9289 98.249C58.6502 101.315 55.5845 107.987 57.5682 111.774C59.7323 115.561 62.6176 115.561 64.421 115.922C66.4047 116.283 67.3064 115.381 68.3884 115.742C69.4704 116.102 69.1097 117.365 65.8637 117.545C64.421 117.725 56.8469 119.168 53.6008 115.201C49.2728 109.791 51.9778 95.7243 55.7649 95.7243Z" fill="#EE9D7F"/>
<path d="M69.8311 60.1981C76.5035 59.6571 94.1764 57.6734 91.291 71.0182C89.3074 80.2154 71.0934 78.953 64.421 73.5429C57.5682 68.3132 56.4862 75.3463 57.0272 78.412C57.5682 81.4777 48.1908 62.1818 69.8311 60.1981Z" fill="#E03D51"/>
<path d="M68.0277 65.9688V71.5592H66.7654V65.9688H68.0277Z" fill="#F5F9FC"/>
<path d="M69.2901 65.9688C69.8311 65.9688 70.3721 65.7885 70.9131 65.7885C71.9951 65.7885 72.7164 65.9688 73.2575 66.3295C73.7985 66.6902 74.1591 67.4115 74.1591 68.4936C74.1591 69.5756 73.7985 70.2969 73.2575 70.6576C72.7164 71.1986 71.8148 71.3789 70.7328 71.3789C70.0114 71.3789 69.6507 71.3789 69.2901 71.3789V65.9688ZM70.5524 70.4772C70.7328 70.4772 70.9131 70.4772 70.9131 70.4772C71.9951 70.4772 72.7164 69.9362 72.7164 68.4936C72.7164 67.4115 71.9951 66.6902 70.9131 66.6902C70.5524 66.6902 70.3721 66.6902 70.3721 66.6902V70.4772H70.5524Z" fill="#F5F9FC"/>
<path d="M78.4872 69.0346H76.5035V70.2969H78.8479V71.3789H75.2411V65.7885H78.6675V66.8705H76.5035V67.9525H78.4872V69.0346Z" fill="#F5F9FC"/>
<path d="M81.0119 69.9362L80.6512 71.3789H79.3889L81.0119 65.7885H82.6349L84.4383 71.3789H82.9956L82.6349 69.9362H81.0119ZM82.4546 69.0346L82.0939 67.9525C81.9136 67.5919 81.9136 67.2312 81.7332 66.8705C81.7332 67.2312 81.5529 67.5919 81.5529 67.9525L81.1922 69.0346H82.4546Z" fill="#F5F9FC"/>
<path d="M84.9793 70.8379C84.9793 70.4772 85.34 70.1166 85.7006 70.1166C86.0613 70.1166 86.422 70.4772 86.422 70.8379C86.422 71.1986 86.0613 71.5593 85.7006 71.5593C85.34 71.5593 84.9793 71.1986 84.9793 70.8379ZM85.1596 69.5756L84.9793 65.7885H86.2416L86.0613 69.5756H85.1596Z" fill="#F5F9FC"/>
</svg>
