<svg width="563" height="552" viewBox="0 0 563 552" fill="none" xmlns="http://www.w3.org/2000/svg">
<g clip-path="url(#clip0_92_5120)">
<path d="M563 551.623C563 551.749 436.955 552 281.437 552C125.919 552 -0.125427 551.874 -0.125427 551.623C-0.125427 551.498 125.919 551.247 281.437 551.247C436.955 551.372 563 551.498 563 551.623Z" fill="#263238"/>
<path d="M495.651 496.398C498.159 497.528 500.04 499.787 500.918 502.423C501.796 505.059 501.922 507.82 501.671 510.581C501.044 515.853 498.034 521.124 494.898 525.392C490.509 521.501 489.505 514.723 489.129 511.334C488.502 505.812 491.01 495.645 495.651 496.398Z" fill="#FF725E"/>
<path d="M499.915 534.052C499.162 531.04 500.417 527.776 502.674 525.768C504.932 523.76 508.193 522.881 511.203 523.132C512.582 523.258 514.087 523.634 514.965 524.764C515.718 525.894 515.592 527.4 514.965 528.529C514.338 529.659 513.335 530.538 512.206 531.291C508.443 533.675 504.305 535.307 499.915 534.052Z" fill="#FF725E"/>
<path d="M494.271 550.243C494.271 550.243 494.271 549.866 494.397 549.113C494.522 548.36 494.773 547.356 494.898 546.227C495.4 543.842 496.027 540.327 497.908 536.939C499.789 533.55 502.423 531.04 504.555 529.784C505.684 529.157 506.562 528.78 507.315 528.529C507.691 528.404 507.942 528.404 508.067 528.278C508.192 528.278 508.318 528.278 508.318 528.278C508.318 528.404 506.813 528.655 504.681 529.91C502.549 531.165 500.04 533.675 498.159 536.939C496.278 540.327 495.651 543.716 495.024 546.101C494.773 547.356 494.522 548.36 494.397 548.988C494.397 549.866 494.271 550.243 494.271 550.243Z" fill="#263238"/>
<path d="M494.397 504.306C494.397 504.306 494.397 504.431 494.397 504.808C494.397 505.184 494.397 505.561 494.522 506.188C494.647 507.318 494.647 509.075 494.773 511.209C494.898 515.476 495.024 521.25 495.024 527.651C495.024 534.052 494.898 539.951 494.647 544.093C494.522 546.226 494.522 547.858 494.397 549.113C494.397 549.615 494.271 550.117 494.271 550.494C494.271 550.745 494.271 550.996 494.271 550.996C494.271 550.996 494.271 550.87 494.271 550.494C494.271 550.117 494.271 549.741 494.271 549.113C494.271 547.858 494.397 546.226 494.397 544.093C494.522 539.825 494.647 534.052 494.647 527.651C494.647 521.25 494.647 515.351 494.522 511.209C494.522 509.075 494.522 507.443 494.397 506.188C494.397 505.686 494.397 505.184 494.397 504.808C494.397 504.557 494.397 504.306 494.397 504.306Z" fill="#263238"/>
<path d="M492.264 537.19C491.261 530.789 486.997 525.015 481.102 522.254C479.597 521.501 477.716 521.124 476.462 522.128C475.208 523.258 475.458 525.266 476.086 526.772C478.594 533.173 485.241 537.692 492.139 537.566" fill="#FF725E"/>
<path d="M481.855 527.274C481.855 527.274 482.231 527.4 482.858 527.651C483.109 527.776 483.485 528.027 483.861 528.278C484.238 528.529 484.739 528.78 485.241 529.157C485.743 529.533 486.244 529.91 486.746 530.287C487.248 530.663 487.875 531.291 488.376 531.793C489.505 532.922 490.509 534.303 491.512 535.809C492.39 537.315 493.142 538.947 493.519 540.453C493.769 541.206 493.895 541.959 494.02 542.587C494.146 543.214 494.271 543.967 494.271 544.469C494.396 545.097 494.271 545.599 494.397 546.101C494.397 546.603 494.397 546.98 494.397 547.356C494.397 547.984 494.271 548.36 494.271 548.36C494.146 548.36 494.396 546.854 494.02 544.595C493.895 543.967 493.895 543.34 493.769 542.712C493.644 542.085 493.393 541.332 493.268 540.578C492.766 539.072 492.139 537.566 491.261 536.06C490.383 534.554 489.254 533.173 488.251 532.044C487.749 531.542 487.248 530.914 486.621 530.538C486.119 530.035 485.617 529.659 485.116 529.408C483.109 528.027 481.855 527.4 481.855 527.274Z" fill="#263238"/>
<path d="M158.653 551.624C158.528 551.624 158.277 550.243 157.775 548.109C157.274 545.85 156.521 542.838 155.393 539.574C154.264 536.311 153.01 533.424 152.006 531.416C151.003 529.408 150.376 528.153 150.501 528.027C150.627 528.027 151.379 529.157 152.508 531.165C153.637 533.173 154.891 536.06 156.145 539.323C157.274 542.587 158.026 545.724 158.403 547.984C158.653 550.243 158.779 551.624 158.653 551.624Z" fill="#263238"/>
<path d="M169.816 497.402C169.816 497.402 169.69 498.156 169.565 499.536C169.314 500.917 168.938 502.925 168.561 505.31C167.809 510.205 166.806 516.982 166.304 524.513C165.677 532.044 165.677 538.821 165.677 543.842C165.677 546.352 165.677 548.36 165.802 549.741C165.802 551.121 165.802 551.875 165.802 551.875C165.802 551.875 165.677 551.121 165.551 549.741C165.426 548.36 165.301 546.352 165.301 543.842C165.175 538.947 165.175 532.044 165.802 524.513C166.429 516.982 167.433 510.205 168.311 505.31C168.812 502.925 169.188 500.917 169.565 499.536C169.565 498.03 169.816 497.277 169.816 497.402Z" fill="#263238"/>
<path d="M187.625 528.655C187.75 528.78 186.872 529.784 185.493 531.667C184.239 533.55 182.608 536.186 181.229 539.449C179.849 542.587 178.971 545.599 178.469 547.858C177.968 550.117 177.717 551.498 177.591 551.498C177.466 551.498 177.591 550.117 177.968 547.858C178.344 545.599 179.222 542.461 180.601 539.323C181.981 536.06 183.737 533.424 185.117 531.542C186.622 529.533 187.625 528.529 187.625 528.655Z" fill="#263238"/>
<path d="M406.353 532.671C406.479 532.671 407.106 533.55 407.984 535.181C408.862 536.813 410.116 539.072 411.37 541.583C412.624 544.093 413.502 546.477 414.129 548.235C414.756 549.992 415.007 551.121 415.007 551.121C414.882 551.121 414.505 550.117 413.753 548.36C413 546.729 411.997 544.344 410.868 541.834C409.74 539.323 408.485 537.064 407.733 535.307C406.73 533.801 406.228 532.797 406.353 532.671Z" fill="#263238"/>
<path d="M429.43 509.828C429.43 509.828 429.305 510.456 429.054 511.46C428.803 512.589 428.427 514.096 428.051 515.853C427.173 519.618 426.169 524.764 425.417 530.412C424.664 536.186 424.288 541.457 424.163 545.222C424.037 546.98 424.037 548.486 424.037 549.741C424.037 550.745 423.912 551.372 423.912 551.372C423.912 551.372 423.786 550.745 423.786 549.741C423.786 548.737 423.661 547.105 423.786 545.222C423.786 541.457 424.163 536.186 424.915 530.412C425.668 524.638 426.796 519.492 427.674 515.727C428.176 513.844 428.552 512.338 428.928 511.334C429.179 510.33 429.305 509.828 429.43 509.828Z" fill="#263238"/>
<path d="M262.499 519.995C262.499 519.995 262.875 520.246 263.628 520.873C264.38 521.501 265.258 522.379 266.387 523.634C268.645 526.019 271.529 529.659 273.912 534.052C276.295 538.445 277.8 542.838 278.553 546.101C278.929 547.733 279.18 548.988 279.305 549.992C279.431 550.87 279.431 551.372 279.431 551.372C279.305 551.372 279.054 549.364 278.176 546.226C277.299 543.089 275.794 538.821 273.411 534.428C271.028 530.035 268.268 526.396 266.136 524.011C263.879 521.501 262.374 520.12 262.499 519.995Z" fill="#263238"/>
<path d="M284.197 506.69C284.197 506.69 284.197 507.318 284.197 508.447C284.197 509.703 284.197 511.334 284.197 513.342C284.197 517.484 284.322 523.132 284.949 529.282C285.451 535.558 286.329 541.08 286.956 545.097C287.332 546.979 287.583 548.611 287.834 549.866C288.084 550.996 288.084 551.623 288.084 551.623C288.084 551.623 287.834 550.996 287.583 549.866C287.332 548.737 286.956 547.105 286.579 545.097C285.827 541.08 284.824 535.432 284.322 529.282C283.82 523.007 283.695 517.359 283.82 513.217C283.82 511.209 283.946 509.452 284.071 508.322C284.071 507.318 284.197 506.69 284.197 506.69Z" fill="#263238"/>
<path d="M303.385 533.299C303.511 533.424 301.379 537.19 299.874 542.21C298.369 547.231 298.118 551.623 297.867 551.623C297.742 551.623 297.742 550.494 297.867 548.737C297.992 546.98 298.369 544.595 299.121 541.959C299.874 539.323 300.877 537.19 301.63 535.558C302.633 534.177 303.26 533.299 303.385 533.299Z" fill="#263238"/>
<path d="M46.9062 432.262H32.3578V547.984H46.9062V432.262Z" fill="#455A64"/>
<path d="M46.9062 547.858C46.9062 547.858 46.9062 547.607 46.9062 547.231C46.9062 546.854 46.9062 546.226 46.9062 545.473C46.9062 543.967 46.9062 541.708 46.9062 538.821C46.9062 533.048 46.9062 524.638 46.7808 514.347C46.7808 493.637 46.6554 464.769 46.6554 432.136L47.0316 432.513C42.3912 432.513 37.4999 432.513 32.4832 432.513L32.8594 432.136C32.734 482.843 32.734 526.647 32.734 547.858L32.6086 547.733C37.3745 547.733 40.8862 547.858 43.3945 547.858C44.6487 547.858 45.5266 547.858 46.1537 547.858C46.53 547.858 46.9062 547.858 46.9062 547.858C46.9062 547.858 46.6554 547.858 46.0283 547.858C45.4012 547.858 44.5233 547.858 43.2691 547.858C40.7608 547.858 37.1236 547.858 32.3578 547.984H32.2324V547.858C32.2324 526.772 32.1069 482.843 32.1069 432.136L32.4832 431.76C37.4999 431.76 42.3912 431.76 47.0316 431.76H47.4079V432.136C47.4079 464.769 47.2825 493.763 47.2825 514.472C47.2825 524.764 47.1571 533.173 47.1571 538.947C47.1571 541.834 47.1571 543.967 47.1571 545.473C47.1571 546.226 47.1571 546.729 47.1571 547.105C46.9062 547.733 46.9062 547.858 46.9062 547.858Z" fill="#263238"/>
<g opacity="0.3">
<path d="M46.9062 435.023H32.3578V439.793H46.9062V435.023Z" fill="black"/>
</g>
<path d="M356.688 432.262H342.139V547.984H356.688V432.262Z" fill="#455A64"/>
<path d="M356.688 547.858C356.688 547.858 356.688 547.607 356.688 547.231C356.688 546.854 356.688 546.226 356.688 545.473C356.688 543.967 356.688 541.708 356.688 538.821C356.688 533.048 356.688 524.638 356.562 514.347C356.562 493.637 356.437 464.769 356.437 432.136L356.813 432.513C352.173 432.513 347.282 432.513 342.265 432.513L342.641 432.136C342.516 482.843 342.516 526.647 342.516 547.858L342.39 547.733C347.156 547.733 350.668 547.858 353.176 547.858C354.43 547.858 355.308 547.858 355.935 547.858C356.312 547.858 356.688 547.858 356.688 547.858C356.688 547.858 356.437 547.858 355.81 547.858C355.183 547.858 354.305 547.858 353.051 547.858C350.542 547.858 346.905 547.858 342.139 547.984H342.014V547.858C342.014 526.772 341.889 482.843 341.889 432.136L342.265 431.76C347.282 431.76 352.173 431.76 356.813 431.76H357.19V432.136C357.19 464.769 357.064 493.763 357.064 514.472C357.064 524.764 356.939 533.173 356.939 538.947C356.939 541.834 356.939 543.967 356.939 545.473C356.939 546.226 356.939 546.729 356.939 547.105C356.688 547.733 356.688 547.858 356.688 547.858Z" fill="#263238"/>
<path d="M333.862 330.849H319.313V427.241H333.862V330.849Z" fill="#455A64"/>
<path d="M333.862 427.367C333.862 427.367 333.862 427.241 333.862 426.865C333.862 426.488 333.862 425.986 333.862 425.359C333.862 424.104 333.862 422.221 333.862 419.836C333.862 415.067 333.862 408.038 333.736 399.378C333.736 382.057 333.611 358.085 333.611 330.849L333.987 331.225C329.347 331.225 324.456 331.225 319.439 331.225C320.066 330.598 319.564 331.1 319.815 330.974V331.1V331.351V331.853V332.857V334.739C319.815 335.995 319.815 337.375 319.815 338.63C319.815 341.141 319.815 343.776 319.815 346.161C319.815 351.181 319.815 356.076 319.815 360.846C319.815 370.385 319.815 379.422 319.815 387.705C319.815 404.273 319.69 417.954 319.69 427.241L319.564 427.116C324.205 427.116 327.842 427.241 330.35 427.241C331.604 427.241 332.482 427.241 333.109 427.241C333.486 427.367 333.862 427.367 333.862 427.367C333.862 427.367 333.611 427.367 332.984 427.367C332.357 427.367 331.354 427.367 330.225 427.367C327.716 427.367 324.079 427.367 319.313 427.493H319.188V427.367C319.188 418.079 319.063 404.398 319.063 387.831C319.063 379.547 319.063 370.51 319.063 360.971C319.063 356.202 319.063 351.307 319.063 346.286C319.063 343.776 319.063 341.266 319.063 338.756C319.063 337.501 319.063 336.246 319.063 334.865V332.982V331.978V331.351V331.1V330.974C319.188 330.849 318.686 331.225 319.439 330.598C324.456 330.598 329.347 330.598 333.987 330.598H334.364V330.974C334.364 358.21 334.238 382.434 334.238 399.754C334.238 408.415 334.113 415.318 334.113 420.087C334.113 422.472 334.113 424.229 334.113 425.484C334.113 426.112 334.113 426.488 334.113 426.865C333.862 427.116 333.862 427.367 333.862 427.367Z" fill="#263238"/>
<path d="M74.749 330.849H60.2005V427.241H74.749V330.849Z" fill="#455A64"/>
<path d="M74.7489 427.367C74.7489 427.367 74.7489 427.241 74.7489 426.865C74.7489 426.488 74.7489 425.986 74.7489 425.359C74.7489 424.104 74.7489 422.221 74.7489 419.836C74.7489 415.067 74.7489 408.038 74.6235 399.378C74.6235 382.057 74.4981 358.085 74.4981 330.849L74.8743 331.225C70.2339 331.225 65.3426 331.225 60.3259 331.225C60.953 330.598 60.4513 331.1 60.7022 330.974V331.1V331.351V331.853V332.857V334.739C60.7022 335.995 60.7022 337.375 60.7022 338.63C60.7022 341.141 60.7022 343.776 60.7022 346.161C60.7022 351.181 60.7022 356.076 60.7022 360.846C60.7022 370.385 60.7022 379.422 60.7022 387.705C60.7022 404.273 60.5767 417.954 60.5767 427.241L60.4513 427.116C65.0918 427.116 68.7289 427.241 71.2372 427.241C72.4914 427.241 73.3693 427.241 73.9964 427.241C74.3727 427.367 74.7489 427.367 74.7489 427.367C74.7489 427.367 74.4981 427.367 73.871 427.367C73.2439 427.367 72.2406 427.367 71.1118 427.367C68.6035 427.367 64.9664 427.367 60.2005 427.493H60.0751V427.367C60.0751 418.079 59.9496 404.398 59.9496 387.831C59.9496 379.547 59.9496 370.51 59.9496 360.971C59.9496 356.202 59.9496 351.307 59.9496 346.286C59.9496 343.776 59.9496 341.266 59.9496 338.756C59.9496 337.501 59.9496 336.246 59.9496 334.865V332.982V331.978V331.351V331.1V330.974C60.0751 330.849 59.5734 331.225 60.3259 330.598C65.3426 330.598 70.2339 330.598 74.8743 330.598H75.2506V330.974C75.2506 358.21 75.1252 382.434 75.1252 399.754C75.1252 408.415 74.9998 415.318 74.9998 420.087C74.9998 422.472 74.9998 424.229 74.9998 425.484C74.9998 426.112 74.9998 426.488 74.9998 426.865C74.7489 427.116 74.7489 427.367 74.7489 427.367Z" fill="#263238"/>
<path d="M361.955 319.929H31.4799V335.367H361.955V319.929Z" fill="#455A64"/>
<path d="M361.955 335.367C361.955 335.367 361.955 334.99 361.955 334.488C361.955 333.861 361.955 332.857 361.955 331.602C361.955 329.091 361.955 325.201 361.955 319.929L362.081 320.055C321.446 320.055 188.754 320.18 31.6053 320.306L31.9815 319.929C31.9815 325.201 31.9815 330.472 31.9815 335.367L31.6053 334.99C123.662 334.99 206.187 335.116 265.76 335.116C295.609 335.116 319.69 335.241 336.245 335.241C344.522 335.241 351.044 335.241 355.434 335.241C357.566 335.241 359.322 335.241 360.45 335.241C361.328 335.367 361.955 335.367 361.955 335.367C361.955 335.367 361.454 335.367 360.325 335.367C359.196 335.367 357.566 335.367 355.434 335.367C351.044 335.367 344.648 335.367 336.37 335.367C319.815 335.367 295.735 335.367 266.011 335.492C206.312 335.492 123.662 335.618 31.6053 335.618H31.229V335.241C31.229 330.347 31.229 325.075 31.229 319.804V319.427H31.6053C188.754 319.553 321.446 319.678 362.081 319.678H362.206V319.804C362.206 325.075 362.206 328.966 362.206 331.476C362.206 332.731 362.206 333.61 362.206 334.237C361.955 334.99 361.955 335.367 361.955 335.367Z" fill="#263238"/>
<path d="M362.833 343.023H32.3578V358.461H362.833V343.023Z" fill="#455A64"/>
<path d="M362.833 358.461C362.833 358.461 362.833 358.085 362.833 357.583C362.833 356.955 362.833 355.951 362.833 354.696C362.833 352.186 362.833 348.295 362.833 343.023L362.959 343.149C322.323 343.149 189.632 343.274 32.4832 343.4L32.8594 343.023C32.8594 348.295 32.8594 353.566 32.8594 358.461L32.4832 358.085C124.54 358.085 207.065 358.21 266.638 358.21C296.487 358.21 320.568 358.336 337.123 358.336C345.4 358.336 351.922 358.336 356.312 358.336C358.444 358.336 360.2 358.336 361.328 358.336C362.206 358.461 362.833 358.461 362.833 358.461C362.833 358.461 362.332 358.461 361.203 358.461C360.074 358.461 358.444 358.461 356.312 358.461C351.922 358.461 345.526 358.461 337.248 358.461C320.693 358.461 296.613 358.461 266.889 358.587C207.19 358.587 124.54 358.712 32.4832 358.712H32.1069V358.336C32.1069 353.441 32.1069 348.169 32.1069 342.898V342.521H32.4832C189.632 342.647 322.323 342.772 362.959 342.772H363.084V342.898C363.084 348.169 363.084 352.06 363.084 354.57C363.084 355.825 363.084 356.704 363.084 357.332C362.833 358.21 362.833 358.461 362.833 358.461Z" fill="#263238"/>
<path d="M362.833 367.121H32.3578V382.559H362.833V367.121Z" fill="#455A64"/>
<path d="M362.833 382.559C362.833 382.559 362.833 382.183 362.833 381.681C362.833 381.053 362.833 380.049 362.833 378.794C362.833 376.284 362.833 372.393 362.833 367.121L362.959 367.247C322.323 367.247 189.632 367.372 32.4832 367.498L32.8594 367.121C32.8594 372.393 32.8594 377.664 32.8594 382.559L32.4832 382.183C124.54 382.183 207.065 382.308 266.638 382.308C296.487 382.308 320.568 382.434 337.123 382.434C345.4 382.434 351.922 382.434 356.312 382.434C358.444 382.434 360.2 382.434 361.328 382.434C362.206 382.434 362.833 382.559 362.833 382.559C362.833 382.559 362.332 382.559 361.203 382.559C360.074 382.559 358.444 382.559 356.312 382.559C351.922 382.559 345.526 382.559 337.248 382.559C320.693 382.559 296.613 382.559 266.889 382.685C207.19 382.685 124.54 382.81 32.4832 382.81H32.1069V382.434C32.1069 377.539 32.1069 372.267 32.1069 366.996V366.619H32.4832C189.632 366.745 322.323 366.87 362.959 366.87H363.084V366.996C363.084 372.267 363.084 376.158 363.084 378.669C363.084 379.924 363.084 380.802 363.084 381.43C362.833 382.183 362.833 382.559 362.833 382.559Z" fill="#263238"/>
<path d="M362.833 391.094H32.3578V406.532H362.833V391.094Z" fill="#455A64"/>
<path d="M362.833 406.532C362.833 406.532 362.833 406.156 362.833 405.653C362.833 405.026 362.833 404.022 362.833 402.767C362.833 400.256 362.833 396.366 362.833 391.094L362.959 391.22C322.323 391.22 189.632 391.345 32.4832 391.471L32.8594 391.094C32.8594 396.366 32.8594 401.637 32.8594 406.532L32.4832 406.156C124.54 406.156 207.065 406.281 266.638 406.281C296.487 406.281 320.568 406.407 337.123 406.407C345.4 406.407 351.922 406.407 356.312 406.407C358.444 406.407 360.2 406.407 361.328 406.407C362.206 406.532 362.833 406.532 362.833 406.532C362.833 406.532 362.332 406.532 361.203 406.532C360.074 406.532 358.444 406.532 356.312 406.532C351.922 406.532 345.526 406.532 337.248 406.532C320.693 406.532 296.613 406.532 266.889 406.658C207.19 406.658 124.54 406.783 32.4832 406.783H32.1069V406.407C32.1069 401.512 32.1069 396.24 32.1069 390.969V390.592H32.4832C189.632 390.718 322.323 390.843 362.959 390.843H363.084V390.969C363.084 396.24 363.084 400.131 363.084 402.641C363.084 403.896 363.084 404.775 363.084 405.402C362.833 406.156 362.833 406.532 362.833 406.532Z" fill="#263238"/>
<path d="M368.728 419.585H17.9348V435.023H368.728V419.585Z" fill="#455A64"/>
<path d="M368.853 435.023C368.853 435.023 368.853 434.772 368.853 434.145C368.853 433.517 368.853 432.638 368.853 431.258C368.853 428.748 368.853 424.857 368.853 419.585L368.979 419.711C326.839 419.711 185.618 419.836 18.1856 419.962L18.5618 419.585C18.5618 424.857 18.5618 430.128 18.5618 435.023L18.1856 434.647C115.761 434.647 203.427 434.772 266.763 434.772C298.369 434.772 323.954 434.898 341.638 434.898C350.417 434.898 357.315 434.898 361.955 434.898C364.213 434.898 366.094 434.898 367.223 434.898C368.226 435.023 368.853 435.023 368.853 435.023C368.853 435.023 368.226 435.023 367.098 435.023C365.843 435.023 364.088 435.023 361.83 435.023C357.19 435.023 350.417 435.023 341.638 435.023C323.954 435.023 298.494 435.023 266.889 435.149C203.553 435.149 115.761 435.274 18.0602 435.274H17.6839V434.898C17.6839 430.003 17.6839 424.731 17.6839 419.46V419.083H18.0602C185.493 419.209 326.713 419.334 368.853 419.334H368.979V419.46C368.979 424.731 368.979 428.622 368.979 431.132C368.979 432.387 368.979 433.266 368.979 433.894C368.853 434.772 368.853 435.023 368.853 435.023Z" fill="#263238"/>
<g opacity="0.3">
<path d="M356.688 435.023H342.139V439.793H356.688V435.023Z" fill="black"/>
</g>
<path d="M179.096 241.986L175.961 262.319L167.809 280.769L155.769 273.113L151.505 262.319L147.867 253.282C147.867 253.282 135.2 256.295 130.184 244.497C127.801 238.723 123.662 226.548 120.15 215.503C116.388 203.58 122.282 190.778 133.821 186.008L134.949 185.506C147.617 181.113 158.403 189.523 162.416 202.325L179.096 241.986Z" fill="#A2675F"/>
<path d="M147.993 253.282C147.993 253.282 155.769 250.772 161.663 242.488C161.663 242.488 161.538 252.529 149.247 256.42L147.993 253.282Z" fill="#7A4A45"/>
<path d="M127.926 224.54C128.302 225.419 129.306 225.921 130.309 225.544C131.312 225.168 131.814 224.164 131.438 223.285C131.062 222.407 130.058 221.905 129.055 222.281C128.051 222.658 127.55 223.662 127.926 224.54Z" fill="#263238"/>
<path d="M124.665 219.645C124.916 219.771 125.919 218.265 127.675 217.512C129.557 216.759 131.187 217.135 131.312 216.759C131.312 216.633 130.936 216.257 130.184 216.131C129.431 216.005 128.302 215.88 127.174 216.382C126.045 216.884 125.292 217.637 124.916 218.39C124.54 219.143 124.54 219.645 124.665 219.645Z" fill="#263238"/>
<path d="M143.854 217.386C144.23 218.265 145.234 218.767 146.237 218.39C147.24 218.014 147.742 217.01 147.366 216.131C146.99 215.252 145.986 214.75 144.983 215.127C144.105 215.503 143.603 216.508 143.854 217.386Z" fill="#263238"/>
<path d="M142.725 211.613C142.976 211.738 144.105 210.357 145.986 209.855C147.867 209.228 149.498 209.855 149.749 209.604C149.874 209.479 149.498 209.102 148.745 208.851C147.993 208.6 146.864 208.475 145.735 208.851C144.607 209.228 143.729 209.981 143.227 210.483C142.725 211.111 142.6 211.487 142.725 211.613Z" fill="#263238"/>
<path d="M142.224 229.435C142.224 229.31 140.97 229.561 139.088 230.063C138.587 230.188 138.085 230.314 137.959 230.063C137.709 229.812 137.709 229.184 137.709 228.557C137.709 227.302 137.709 225.921 137.583 224.415C137.458 218.516 137.082 213.746 136.831 213.872C136.58 213.872 136.58 218.641 136.705 224.54C136.705 225.921 136.831 227.302 136.831 228.682C136.831 229.31 136.831 230.063 137.332 230.565C137.583 230.816 138.085 230.941 138.336 230.941C138.712 230.941 138.963 230.816 139.214 230.69C141.095 230.063 142.224 229.561 142.224 229.435Z" fill="#263238"/>
<path d="M139.214 203.831C139.59 204.207 141.346 203.203 143.603 202.701C145.861 202.074 147.867 201.948 147.993 201.321C147.993 201.07 147.491 200.693 146.613 200.568C145.735 200.317 144.481 200.317 143.102 200.819C141.722 201.195 140.719 201.948 139.966 202.576C139.339 203.078 139.088 203.58 139.214 203.831Z" fill="#263238"/>
<path d="M122.031 212.491C122.533 212.742 123.662 211.864 125.167 211.236C126.672 210.483 128.051 210.357 128.177 209.855C128.177 209.604 127.801 209.228 127.174 209.102C126.421 208.977 125.418 208.977 124.414 209.479C123.411 209.981 122.659 210.734 122.282 211.362C121.906 211.738 121.906 212.24 122.031 212.491Z" fill="#263238"/>
<path d="M165.301 211.362C165.426 211.236 172.449 205.588 175.585 213.872C178.72 222.156 169.816 223.536 169.69 223.285C169.439 223.034 165.301 211.362 165.301 211.362Z" fill="#A2675F"/>
<path d="M170.944 219.269C170.944 219.269 171.07 219.269 171.446 219.394C171.697 219.394 172.199 219.394 172.575 219.018C173.327 218.39 173.578 216.759 173.076 215.252C172.826 214.499 172.449 213.872 171.948 213.37C171.446 212.868 170.944 212.617 170.443 212.617C169.941 212.617 169.816 213.119 169.69 213.37C169.69 213.621 169.816 213.746 169.69 213.872C169.69 213.872 169.439 213.746 169.439 213.495C169.439 213.37 169.439 213.119 169.565 212.868C169.69 212.617 169.941 212.491 170.317 212.366C170.944 212.115 171.822 212.491 172.324 213.119C172.951 213.621 173.453 214.374 173.704 215.252C174.331 216.884 173.954 218.767 172.951 219.645C172.449 220.022 171.822 220.022 171.571 219.896C171.07 219.394 170.944 219.269 170.944 219.269Z" fill="#7A4A45"/>
<path d="M113.127 202.074C112.876 200.317 113.378 198.308 114.883 197.43C113.628 196.175 113.252 194.041 114.256 192.409C115.133 190.903 117.266 190.15 118.896 190.652C117.767 188.267 120.025 185.004 122.659 185.13C122.031 183.749 122.408 181.866 123.662 180.862C124.916 179.858 126.797 179.858 128.051 180.862C128.553 177.222 133.194 174.838 136.329 176.595C139.088 174.085 143.854 174.21 146.488 176.846C149.247 175.842 152.508 176.846 154.264 178.98C156.02 178.478 158.026 178.854 159.406 180.109C160.785 181.364 161.413 183.372 161.036 185.13C163.545 185.255 165.301 188.393 164.172 190.527C165.677 190.652 166.931 191.656 167.558 192.911C168.06 194.292 167.809 195.924 166.806 196.928C168.06 196.551 169.188 197.932 169.314 199.312C169.439 200.568 168.938 201.948 168.938 203.203C168.938 204.333 169.188 205.337 169.314 206.467C169.439 208.475 168.561 210.483 167.056 211.864C167.182 211.864 167.307 211.989 167.307 211.989C167.934 212.993 166.806 214.248 165.677 214.248C164.548 214.248 163.545 213.495 162.667 212.742C161.538 211.989 160.409 211.236 159.657 210.232C158.904 209.228 158.653 207.596 159.406 206.592C157.775 206.718 156.27 205.588 155.393 204.333C154.515 202.952 154.138 201.321 153.888 199.814C153.386 197.555 152.884 195.171 152.383 192.911C149.372 194.041 145.735 193.413 143.478 191.154C142.098 193.664 138.085 194.292 136.078 192.284C136.329 195.547 133.57 198.81 130.184 199.061C131.187 200.568 128.804 203.454 127.299 204.584C125.794 205.714 123.286 205.337 123.286 205.337C123.286 205.337 121.154 208.224 119.272 208.224C117.516 208.224 114.632 207.094 115.008 205.086C114.883 205.463 113.378 203.831 113.127 202.074Z" fill="#263238"/>
<path d="M164.673 190.652C164.548 190.652 164.799 191.28 164.297 192.033C164.046 192.409 163.67 192.786 163.043 192.786C162.541 192.911 161.789 192.66 161.413 192.033L161.162 191.531L160.911 192.033C160.535 192.786 159.782 193.288 158.779 193.288C157.775 193.288 156.898 192.535 156.647 191.656L156.521 191.154L156.145 191.531C155.643 192.033 155.016 192.158 154.515 192.158C154.013 192.158 153.511 191.907 153.135 191.656C152.508 191.154 152.257 190.652 152.257 190.652C152.257 190.652 152.257 191.28 152.884 191.907C153.26 192.284 153.762 192.535 154.515 192.66C155.142 192.66 156.02 192.535 156.647 191.907L156.145 191.782C156.396 192.911 157.525 193.915 158.904 193.915C160.158 193.915 161.162 193.162 161.538 192.284H161.036C161.538 193.037 162.541 193.288 163.294 193.162C164.046 193.037 164.548 192.535 164.799 192.033C165.05 191.154 164.673 190.527 164.673 190.652Z" fill="#455A64"/>
<path d="M169.063 197.932C169.063 197.932 168.812 198.308 168.311 198.685C167.809 199.061 166.806 199.312 165.928 198.685L165.677 198.434L165.551 198.81C165.301 199.438 164.548 200.191 163.67 200.191C162.792 200.317 161.789 199.814 161.413 198.936L161.162 198.434L160.785 198.936C160.66 199.061 160.66 199.187 160.535 199.312C160.033 199.815 159.155 199.814 158.653 199.438C158.152 199.061 157.775 198.434 157.901 197.806L158.026 197.179L157.525 197.555C156.898 197.932 156.145 198.057 155.518 197.932C154.891 197.806 154.389 197.43 154.138 197.053C153.511 196.3 153.511 195.673 153.386 195.673C153.386 195.673 153.26 196.3 153.888 197.179C154.138 197.555 154.765 198.057 155.518 198.308C156.27 198.559 157.148 198.559 158.026 198.057L157.525 197.806C157.399 198.559 157.775 199.563 158.528 200.066C159.28 200.568 160.409 200.568 161.162 199.94C161.287 199.815 161.538 199.689 161.538 199.438H160.911C161.538 200.568 162.792 201.195 163.921 201.07C165.05 200.819 165.928 200.066 166.178 199.187L165.802 199.312C166.304 199.689 167.056 199.815 167.558 199.689C168.06 199.563 168.436 199.438 168.687 199.187C169.063 198.308 169.063 197.932 169.063 197.932Z" fill="#455A64"/>
<path d="M123.662 184.502C123.662 184.502 123.787 184.126 124.414 183.624C124.665 183.373 125.167 183.247 125.669 183.247C126.17 183.247 126.797 183.498 127.174 184L127.424 184.377L127.55 183.875C127.675 182.996 128.302 181.866 129.431 181.49C130.56 180.988 132.065 181.364 132.943 182.368L133.319 182.87L133.444 182.243C133.695 181.113 134.573 180.235 135.702 179.733C136.831 179.231 138.21 179.482 139.214 180.109C139.59 180.36 139.966 180.737 140.217 181.239L140.468 181.49L140.719 181.239C142.098 180.235 144.23 180.36 145.359 181.49C146.488 182.619 146.864 184.251 146.362 185.506L146.237 186.008L146.739 185.883C147.867 185.632 148.996 185.883 149.874 186.385C150.752 186.887 151.128 187.64 151.505 188.267C152.006 189.523 151.755 190.401 151.881 190.401C151.881 190.401 152.006 190.15 152.006 189.774C152.006 189.397 152.006 188.769 151.755 188.142C151.505 187.389 151.003 186.636 150.125 186.008C149.247 185.381 147.993 185.004 146.739 185.255L146.99 185.632C147.617 184.251 147.24 182.243 145.861 180.988C144.481 179.733 142.098 179.482 140.468 180.737L140.97 180.862C140.593 180.36 140.217 179.858 139.715 179.607C138.461 178.729 136.831 178.603 135.577 179.105C134.322 179.607 133.319 180.737 132.943 182.117L133.444 181.992C132.316 180.611 130.56 180.36 129.18 180.988C127.926 181.615 127.174 182.745 127.048 183.875L127.424 183.749C126.923 183.121 126.17 182.87 125.669 182.87C125.041 182.87 124.54 183.121 124.289 183.498C124.038 183.749 123.913 184.126 123.787 184.251C123.662 184.377 123.662 184.502 123.662 184.502Z" fill="#455A64"/>
<path d="M147.617 227.427C147.366 227.553 148.118 229.561 146.99 231.694C145.861 233.828 143.603 234.456 143.729 234.707C143.729 234.832 144.356 234.958 145.234 234.581C146.112 234.205 147.24 233.452 147.993 232.197C148.62 230.941 148.62 229.561 148.369 228.682C148.244 227.804 147.742 227.427 147.617 227.427Z" fill="#263238"/>
<path d="M135.451 263.574L125.543 291.563L127.801 322.188L134.071 375.154C134.071 375.154 157.399 367.247 158.403 368.126C159.406 368.879 148.118 314.532 148.118 314.532L156.27 270.226L155.769 257.173L135.451 263.574Z" fill="#FF725E"/>
<path d="M135.451 263.574L124.54 288.677L101.965 297.588L78.2606 304.868L81.6469 321.937C82.3994 325.452 85.7857 327.585 89.2974 326.707L109.239 321.31L127.801 320.431L137.458 297.965L135.451 263.574Z" fill="#FF725E"/>
<path d="M86.0365 297.965L87.667 295.956C87.667 295.956 90.677 295.956 92.4328 296.96C94.0633 297.965 96.697 301.855 96.9479 303.864C97.3241 305.872 96.9479 309.637 96.9479 309.637L85.6603 297.965" fill="#A2675F"/>
<path d="M64.0884 285.664C64.0884 286.041 85.4094 308.633 85.4094 308.633L89.4228 312.649H102.341L77.5081 285.037L66.8476 283.154L64.0884 285.664Z" fill="#263238"/>
<path d="M150.501 335.869C150.501 335.869 150.25 335.618 150 335.116C149.623 334.488 149.247 333.735 148.745 332.731C147.617 330.723 146.112 327.711 144.356 323.945C142.6 320.18 140.468 315.787 138.712 310.641C138.336 309.386 137.834 308.006 137.583 306.625C137.332 305.872 137.332 305.119 137.207 304.491C137.207 303.738 137.207 302.985 137.207 302.232C137.207 299.22 137.207 296.207 137.332 293.07C137.458 289.053 137.709 285.288 137.959 281.523V281.272L138.085 281.146C140.342 280.142 142.6 279.138 144.732 278.259L144.857 278.887C143.102 278.636 141.346 278.385 139.841 278.259H139.464L139.715 277.883C142.976 272.235 145.735 267.591 147.617 264.202C148.62 262.57 149.372 261.315 149.874 260.437C150.125 260.06 150.376 259.684 150.501 259.433C150.627 259.181 150.752 259.056 150.752 259.056C150.752 259.056 150.752 259.181 150.627 259.433C150.501 259.684 150.25 260.06 150.125 260.437C149.623 261.441 148.871 262.696 147.993 264.327C146.112 267.716 143.478 272.36 140.342 278.134L140.092 277.757C141.722 278.008 143.352 278.134 145.234 278.385L146.362 278.51L145.359 278.887C143.227 279.765 141.095 280.769 138.712 281.774L138.837 281.523C138.587 285.162 138.461 289.053 138.21 293.07C138.085 296.207 137.959 299.22 138.085 302.232C138.085 302.985 138.085 303.738 138.085 304.366C138.21 305.119 138.21 305.746 138.336 306.499C138.587 307.88 139.088 309.261 139.464 310.516C141.22 315.662 143.227 320.18 144.983 323.82C146.739 327.585 148.118 330.598 149.122 332.606C149.623 333.61 150 334.363 150.25 334.99C150.376 335.618 150.501 335.869 150.501 335.869Z" fill="#263238"/>
<path d="M76.6302 297.965C76.6302 297.965 73.3693 300.349 73.4947 301.604C73.6202 302.985 74.3727 304.366 75.1252 304.617C75.8777 304.868 78.1352 305.997 78.1352 305.997C78.1352 305.997 76.1285 307.88 76.7556 309.888C77.3827 311.896 78.6369 312.398 78.6369 312.398C78.6369 312.398 78.7623 314.909 79.5148 316.415C80.2673 317.921 82.6502 318.423 82.6502 318.423C82.6502 318.423 84.0298 321.184 85.1586 322.439C86.2873 323.82 88.6703 324.196 88.6703 324.196C88.6703 324.196 91.6803 324.573 93.1853 323.443C94.8158 322.314 96.4462 321.31 96.5716 317.67C96.5716 317.67 103.72 314.156 103.72 312.273C103.846 310.39 102.968 309.888 102.968 309.888L99.4562 310.516C99.4562 310.516 98.9545 308.633 97.8258 308.382C96.697 308.256 83.779 311.394 83.779 311.394C83.779 311.394 92.6836 310.014 92.9345 308.257C93.1853 306.499 93.3107 304.993 91.9311 304.742C90.5515 304.366 81.1452 305.37 81.1452 305.37L80.6436 303.738C80.6436 303.738 83.1519 303.864 83.1519 301.604C83.1519 299.345 81.7723 298.843 81.7723 298.843L76.6302 297.965Z" fill="#A2675F"/>
<path d="M150.501 259.181L151.63 267.842L144.857 305.37L151.63 337.877L186.872 348.295L200.668 342.27L196.028 251.149L183.361 242.363L178.595 239.1L160.409 266.461L150.501 259.181Z" fill="#FAFAFA"/>
<path d="M182.357 241.61L191.137 245.501L222.24 249.643L239.046 338.003L241.178 348.169L273.411 396.366C274.916 398.625 274.163 401.637 271.906 402.892L245.568 417.954C243.561 418.958 241.053 418.33 239.799 416.448L206.312 365.866L189.757 344.529C189.757 344.529 179.849 314.407 178.469 301.604C177.215 288.802 177.717 274.996 178.469 267.842C179.096 260.311 182.357 241.61 182.357 241.61Z" fill="#FF725E"/>
<path d="M222.24 249.768C226.379 251.902 229.264 255.793 230.141 260.437C232.148 270.98 238.043 289.179 240.3 308.759C243.436 336.12 236.036 344.529 232.65 349.299C229.264 353.943 207.692 363.984 207.692 363.984L191.513 342.521L209.448 327.836L207.817 289.932C207.817 289.932 201.546 281.272 204.682 268.469C207.943 255.542 217.098 248.89 222.24 249.768Z" fill="#FF725E"/>
<g opacity="0.3">
<path d="M238.921 337.375C236.412 344.027 233.653 349.55 228.009 352.813C221.989 356.202 213.461 360.971 207.692 363.984L211.956 370.51C218.603 369.506 230.769 361.724 234.782 356.453C238.795 351.181 239.924 344.027 238.921 337.375Z" fill="black"/>
</g>
<path d="M207.441 291.815C207.441 291.815 207.441 292.066 207.566 292.442C207.692 292.819 207.692 293.446 207.817 294.074C208.068 295.58 208.444 297.714 208.82 300.475C209.698 306.123 210.827 314.281 212.332 324.322V324.448L212.207 324.573C206.312 329.845 199.289 335.995 191.638 342.647V342.27C196.655 348.922 202.048 356.202 207.817 363.733L207.441 363.607C212.834 360.846 218.352 357.959 223.871 354.696C225.376 353.817 227.006 352.813 228.511 351.809C230.016 350.805 231.396 349.801 232.65 348.546C234.907 345.91 236.538 342.772 237.792 339.509C240.3 333.108 240.802 326.33 240.802 320.055C240.677 313.779 239.924 307.754 239.046 302.232C238.168 296.709 237.165 291.563 236.162 286.794C234.155 277.381 232.274 269.85 230.894 264.704C230.267 262.194 229.64 260.186 229.389 258.679C229.264 258.052 229.138 257.55 229.013 257.173C228.887 256.797 228.887 256.671 228.887 256.671C228.887 256.671 229.013 256.797 229.013 257.173C229.138 257.55 229.264 258.052 229.514 258.679C229.891 260.06 230.518 262.068 231.145 264.578C232.524 269.724 234.531 277.255 236.538 286.669C237.541 291.312 238.544 296.458 239.422 302.106C240.3 307.629 241.053 313.654 241.178 320.055C241.304 326.33 240.677 333.233 238.168 339.76C236.914 343.023 235.284 346.161 232.901 348.922C231.646 350.177 230.141 351.307 228.636 352.311C227.131 353.315 225.626 354.319 223.996 355.198C218.478 358.461 212.959 361.348 207.566 364.109L207.315 364.235L207.19 363.984C201.421 356.327 196.028 349.048 191.011 342.396L190.886 342.145L191.137 342.019C198.787 335.367 205.81 329.217 211.83 323.945L211.705 324.196C210.325 314.156 209.197 305.997 208.319 300.349C207.943 297.588 207.692 295.454 207.441 293.823C207.315 293.07 207.315 292.568 207.19 292.191C207.441 291.94 207.441 291.815 207.441 291.815Z" fill="#263238"/>
<path d="M184.74 324.196C184.74 324.196 184.74 323.945 184.866 323.318C184.991 322.69 185.116 321.812 185.242 320.808C185.618 318.548 185.994 315.536 186.496 311.645C187.625 303.989 189.255 293.321 191.011 281.523C191.764 275.875 192.516 270.352 193.143 265.457L193.394 265.834C191.513 265.081 189.757 264.453 188.127 263.825L187.625 263.574L188.127 263.323C190.008 262.068 191.764 260.939 193.519 259.809L193.394 260.06C192.767 255.667 192.265 252.027 191.889 249.392C191.764 248.136 191.638 247.258 191.513 246.505C191.387 245.877 191.387 245.501 191.387 245.501C191.387 245.501 191.513 245.877 191.638 246.505C191.764 247.258 191.889 248.136 192.14 249.392C192.516 252.027 193.143 255.542 193.896 260.06V260.186L193.77 260.311C192.14 261.441 190.384 262.57 188.503 263.825V263.323C190.259 263.951 192.014 264.578 193.896 265.332L194.147 265.457V265.708C193.519 270.603 192.767 276.126 192.014 281.774C190.384 293.572 188.503 304.115 187.374 311.896C186.747 315.662 186.245 318.799 185.869 320.933C185.744 321.937 185.493 322.816 185.367 323.443C184.866 323.945 184.74 324.196 184.74 324.196Z" fill="#263238"/>
<path d="M217.6 250.898C217.725 251.023 216.095 252.153 213.963 254.287C212.834 255.416 211.705 256.797 210.576 258.554C209.448 260.311 208.319 262.194 207.441 264.453C206.563 266.587 205.936 268.846 205.56 270.854C205.183 272.862 205.058 274.745 205.058 276.251C205.058 279.389 205.434 281.272 205.309 281.272C205.309 281.272 205.183 280.769 204.933 279.891C204.807 279.514 204.807 278.887 204.682 278.259C204.682 277.632 204.556 276.879 204.556 276.126C204.556 274.494 204.682 272.737 204.933 270.603C205.309 268.595 205.936 266.336 206.814 264.076C207.692 261.817 208.82 259.809 210.075 258.177C211.329 256.42 212.458 255.04 213.586 254.035C214.088 253.408 214.715 253.031 215.217 252.655C215.718 252.278 216.095 251.902 216.471 251.651C217.098 251.149 217.6 250.898 217.6 250.898Z" fill="#263238"/>
<path d="M126.384 306.795C126.916 314.332 127.516 320.43 127.723 320.415C127.93 320.4 127.667 314.279 127.135 306.742C126.603 299.205 126.003 293.107 125.796 293.122C125.589 293.137 125.852 299.258 126.384 306.795Z" fill="#263238"/>
<path d="M233.653 375.782L238.544 385.697L260.869 371.389L253.093 362.603L233.653 375.782Z" fill="#FF725E"/>
<path d="M233.653 375.782C233.653 375.782 234.029 375.405 235.033 374.778C236.036 374.025 237.29 373.146 238.921 372.016C242.432 369.632 247.324 366.243 252.968 362.352L253.218 362.227L253.344 362.478C255.727 365.239 258.36 368.126 261.12 371.263L261.37 371.514L260.994 371.765C260.743 372.016 260.367 372.142 259.991 372.393C251.713 377.664 244.188 382.434 238.544 385.948L238.294 386.074L238.168 385.823C236.789 382.81 235.534 380.3 234.657 378.543C234.28 377.79 234.029 377.037 233.779 376.535C233.779 376.033 233.653 375.782 233.653 375.782C233.653 375.782 233.779 376.033 234.029 376.535C234.28 377.037 234.657 377.664 235.033 378.543C235.911 380.3 237.165 382.685 238.67 385.697L238.294 385.572C243.812 381.932 251.337 377.162 259.615 371.765C259.991 371.514 260.242 371.389 260.618 371.138L260.493 371.64C257.733 368.502 255.1 365.615 252.717 362.854H253.093C247.449 366.619 242.558 369.883 239.046 372.142C237.29 373.272 236.036 374.15 234.907 374.778C234.406 375.029 234.155 375.28 233.779 375.531C233.904 375.782 233.653 375.907 233.653 375.782Z" fill="#263238"/>
<g opacity="0.3">
<path d="M233.904 376.284C234.029 376.535 238.921 391.471 238.921 391.471L259.74 376.66L257.984 373.271L238.544 385.697L233.904 376.284Z" fill="black"/>
</g>
<g opacity="0.3">
<path d="M191.764 249.643L195.526 261.817L191.764 263.574L196.655 265.959C196.655 265.959 188.879 308.633 187.876 312.524C186.872 316.415 185.744 317.67 185.744 317.67L193.394 265.583L188.127 263.574L193.394 260.06L191.764 249.643Z" fill="black"/>
</g>
<path d="M109.239 316.415C108.988 316.415 109.364 312.398 107.859 307.754C106.354 303.111 103.595 300.098 103.72 299.973C103.72 299.973 104.598 300.6 105.476 301.855C106.48 303.111 107.608 305.119 108.486 307.503C109.239 309.888 109.615 312.147 109.615 313.779C109.615 315.411 109.364 316.415 109.239 316.415Z" fill="#263238"/>
<g opacity="0.3">
<path d="M125.543 291.94C121.781 301.228 123.16 311.394 127.55 320.431C126.923 310.139 126.546 301.981 125.543 291.94Z" fill="black"/>
</g>
<path d="M179.724 249.392C179.724 249.392 179.473 249.894 179.096 250.647C178.595 251.525 177.968 252.655 177.215 253.91C175.585 256.671 173.453 260.562 171.321 264.955C169.816 267.967 168.687 270.729 167.558 273.113L167.433 273.49L167.182 273.239C165.175 271.607 163.545 270.101 162.541 268.971C161.538 267.842 160.911 267.089 161.036 267.089C161.036 267.089 161.663 267.716 162.792 268.72C163.921 269.724 165.551 271.231 167.558 272.862L167.182 272.988C168.185 270.603 169.314 267.716 170.819 264.704C172.951 260.311 175.209 256.42 176.964 253.784C177.842 252.404 178.595 251.4 179.096 250.647C179.347 249.768 179.724 249.266 179.724 249.392Z" fill="#263238"/>
<path d="M159.155 266.712C159.28 266.838 158.403 269.599 157.023 273.113L156.898 273.49L156.521 273.239L156.396 273.113C153.511 270.603 151.63 268.093 151.755 267.967C151.881 267.842 154.013 270.101 156.772 272.611L156.898 272.737L156.396 272.862C157.775 269.348 158.904 266.587 159.155 266.712Z" fill="#263238"/>
<path d="M162.792 330.849C162.792 330.849 162.792 330.598 162.667 330.221C162.667 329.719 162.541 329.217 162.541 328.464C162.416 326.832 162.291 324.573 162.165 321.937C161.789 316.415 161.413 308.884 161.162 300.475C160.786 292.065 160.66 284.409 160.66 279.012C160.66 276.251 160.66 273.992 160.786 272.486C160.786 271.733 160.911 271.231 160.911 270.729C160.911 270.352 160.911 270.101 161.036 270.101C161.036 270.101 161.036 270.352 161.036 270.729C161.036 271.231 161.036 271.733 161.036 272.486C161.036 274.117 161.162 276.377 161.162 279.012C161.287 284.535 161.538 292.065 161.914 300.475C162.291 308.759 162.541 316.415 162.792 321.937C162.918 324.573 162.918 326.832 163.043 328.464C163.043 329.217 163.043 329.719 163.043 330.221C162.792 330.723 162.792 330.849 162.792 330.849Z" fill="#263238"/>
<path d="M89.4229 500.415L92.6837 531.04C92.6837 531.04 62.5835 544.595 62.7089 550.368L122.282 546.227L119.147 498.281L89.4229 500.415Z" fill="#FF725E"/>
<path d="M110.869 527.149C111.998 527.4 112.876 528.655 112.751 529.785C112.625 530.914 111.371 531.918 110.117 531.667C108.988 531.416 107.859 530.036 108.11 528.78C108.486 527.651 109.991 526.647 110.995 527.149" fill="#E0E0E0"/>
<path d="M122.408 547.482L122.157 542.838L64.841 547.231C64.841 547.231 62.2072 548.611 62.7089 550.368L122.408 547.482Z" fill="#E0E0E0"/>
<path d="M91.6803 530.789C91.6803 531.04 93.1854 531.165 94.6904 531.918C96.1954 532.671 97.0733 533.926 97.3241 533.801C97.575 533.675 97.0733 532.044 95.192 531.04C93.3108 530.036 91.5549 530.538 91.6803 530.789Z" fill="#263238"/>
<path d="M85.5349 533.801C85.5349 534.052 86.789 534.554 87.9178 535.684C89.0465 536.813 89.4228 538.068 89.6736 538.068C89.9245 538.068 90.0499 536.437 88.6703 534.93C87.2907 533.55 85.5349 533.55 85.5349 533.801Z" fill="#263238"/>
<path d="M82.5249 541.583C82.7757 541.583 83.1519 540.202 82.274 538.57C81.3961 537.064 80.0165 536.437 79.8911 536.688C79.7657 536.939 80.6436 537.692 81.3961 539.072C82.0232 540.327 82.274 541.583 82.5249 541.583Z" fill="#263238"/>
<path d="M91.6804 523.76C91.8058 524.011 93.1854 523.509 94.8158 523.509C96.4462 523.509 97.8258 523.885 97.9512 523.634C98.0767 523.383 96.8225 522.379 94.8158 522.505C92.8091 522.505 91.5549 523.509 91.6804 523.76Z" fill="#263238"/>
<path d="M78.7623 376.66L51.1704 390.341C51.1704 390.341 27.9682 366.87 22.7006 368.879L47.2825 423.351L91.1787 403.771L78.7623 376.66Z" fill="#FF725E"/>
<path d="M61.0785 406.156C61.2039 407.285 60.4514 408.666 59.1972 408.791C58.0684 409.042 56.6888 408.164 56.5634 407.034C56.3126 405.904 57.3159 404.273 58.5701 404.147C59.8243 404.022 61.2039 405.151 61.2039 406.281" fill="#E0E0E0"/>
<path d="M46.0283 423.978L50.2925 422.095L26.3377 369.883C26.3377 369.883 24.2056 367.874 22.5752 369.004L46.0283 423.978Z" fill="#E0E0E0"/>
<path d="M51.045 389.337C50.7942 389.462 51.2959 390.843 51.045 392.6C50.7942 394.357 49.9163 395.487 50.1671 395.738C50.2925 395.989 51.7975 394.859 52.0484 392.726C52.2992 390.718 51.2959 389.211 51.045 389.337Z" fill="#263238"/>
<path d="M46.1537 384.693C45.9029 384.693 45.9029 386.074 45.2758 387.454C44.6487 388.835 43.52 389.713 43.6454 389.965C43.7708 390.216 45.4012 389.713 46.1537 387.956C46.9062 386.199 46.4046 384.568 46.1537 384.693Z" fill="#263238"/>
<path d="M37.7507 384.568C37.7507 384.819 39.2557 384.568 40.5099 383.312C41.6387 381.932 41.6387 380.426 41.3878 380.426C41.137 380.426 40.6353 381.555 39.7574 382.559C38.7541 383.689 37.7507 384.317 37.7507 384.568Z" fill="#263238"/>
<path d="M57.6921 386.952C57.4413 387.203 58.4446 388.207 58.9463 389.839C59.5734 391.345 59.5734 392.726 59.8242 392.851C60.0751 392.977 60.5767 391.345 59.8242 389.462C59.1971 387.58 57.8175 386.701 57.6921 386.952Z" fill="#263238"/>
<path d="M92.182 394.106C92.182 394.106 82.274 396.115 80.2673 406.783C78.2607 417.452 85.5349 524.387 85.5349 524.387L123.035 521.375L120.777 449.332L119.899 434.772L123.16 432.262L189.004 420.715L178.971 393.479L167.934 374.276L117.391 386.827L92.182 394.106Z" fill="#263238"/>
<path d="M216.346 376.033C216.346 376.033 189.13 336.622 181.103 330.849C174.581 326.079 164.673 326.079 158.528 328.84C152.382 331.602 56.8142 379.045 56.8142 379.045L70.861 414.188L161.789 382.685L175.334 404.022L188.001 420.715L223.369 420.966C224.999 420.966 232.65 405.905 232.65 405.905L216.346 376.033Z" fill="#263238"/>
<path d="M80.0165 414.941C80.0165 414.941 80.0165 414.816 80.0165 414.565C80.0165 414.314 80.0165 413.937 80.0165 413.435C80.0165 412.933 80.0165 412.306 80.0165 411.678C80.0165 410.925 80.1419 410.172 80.2674 409.293C80.3928 408.415 80.6436 407.411 80.8944 406.281C81.0199 405.779 81.2707 405.151 81.3961 404.649C81.5215 404.022 81.7724 403.52 82.0232 402.892C83.0265 400.507 84.7824 397.997 87.4162 395.989C88.7958 394.985 90.3008 394.232 92.0566 393.73C93.8125 393.479 95.5683 393.102 97.4496 392.851C101.212 392.224 105.225 391.596 109.364 390.843C117.767 389.462 127.048 387.956 136.705 386.325C145.485 384.944 153.888 383.563 161.538 382.183H161.789L161.914 382.308C169.189 393.73 175.083 403.645 180.1 410.046C182.483 413.31 184.489 415.82 185.744 417.703C186.371 418.581 186.872 419.209 187.249 419.711C187.374 419.962 187.499 420.087 187.625 420.213C187.75 420.338 187.75 420.338 187.75 420.464C187.75 420.464 187.75 420.464 187.625 420.338C187.499 420.213 187.374 420.087 187.249 419.836C186.872 419.334 186.371 418.707 185.618 417.828C184.239 416.071 182.232 413.561 179.724 410.297C174.707 403.896 168.687 393.981 161.287 382.685L161.538 382.81C153.888 384.065 145.485 385.446 136.705 386.952C127.048 388.584 117.767 390.09 109.239 391.471C104.975 392.098 101.087 392.851 97.3242 393.353C95.4429 393.604 93.6871 393.981 91.9312 394.232C90.3008 394.608 88.7958 395.487 87.5416 396.366C84.9078 398.248 83.2774 400.759 82.274 403.018C82.0232 403.52 81.7724 404.147 81.5215 404.775C81.3961 405.277 81.1453 405.904 81.0199 406.407C80.769 407.536 80.5182 408.415 80.3928 409.293C80.2674 410.172 80.1419 410.925 80.0165 411.678C80.0165 412.306 79.8911 412.933 79.8911 413.435C79.8911 413.937 79.8911 414.188 79.7657 414.565C80.0165 414.816 80.0165 414.941 80.0165 414.941Z" fill="#455A64"/>
<path d="M174.832 358.336C174.832 358.336 174.958 358.712 174.958 359.465C175.083 360.218 174.958 361.222 174.832 362.603C174.707 363.858 174.456 365.49 173.954 367.121C173.453 368.753 172.826 370.636 171.822 372.393C170.819 374.15 169.816 375.782 168.687 377.162C167.558 378.543 166.429 379.547 165.426 380.426C164.423 381.304 163.545 381.932 162.918 382.183C162.291 382.559 161.914 382.685 161.914 382.685C161.789 382.559 163.168 381.681 165.175 380.049C166.178 379.171 167.182 378.041 168.311 376.786C169.314 375.405 170.443 373.899 171.321 372.142C172.199 370.385 172.951 368.628 173.453 366.996C173.954 365.364 174.205 363.858 174.456 362.603C174.707 359.967 174.707 358.336 174.832 358.336Z" fill="#455A64"/>
<path d="M490.885 483.345L326.713 483.22C307.022 483.22 290.969 467.154 290.969 447.449L291.094 35.6453C291.094 15.94 307.148 -0.125519 326.838 -0.125519L491.01 -7.19726e-06C510.701 -7.19726e-06 526.754 16.0655 526.754 35.7708L526.629 447.574C526.629 467.405 510.575 483.471 490.885 483.345Z" fill="#263238"/>
<path d="M490.759 14.6848H458.903C454.639 14.6848 451.127 18.3247 451.127 22.7176V28.4911C451.127 33.0095 447.616 36.5239 443.352 36.5239H381.27C377.006 36.5239 373.494 32.884 373.494 28.4911V22.7176C373.494 18.1992 369.982 14.6848 365.718 14.6848H354.556H326.713C312.917 14.6848 301.63 25.8554 301.63 39.7872L301.504 441.675C301.504 455.482 312.666 466.778 326.588 466.778L490.383 466.903C504.179 466.903 515.467 455.733 515.467 441.801L515.592 39.9127C515.843 25.8554 504.555 14.6848 490.759 14.6848Z" fill="white"/>
<path d="M515.843 39.6616C515.843 25.8554 504.681 14.5593 490.759 14.5593H458.903C454.639 14.5593 451.127 18.1992 451.127 22.5921V28.3656C451.127 32.884 447.616 36.3983 443.352 36.3983H381.27C377.006 36.3983 373.494 32.7585 373.494 28.3656V22.5921C373.494 18.0737 369.982 14.5593 365.718 14.5593H354.556H326.713C312.917 14.5593 301.63 25.7299 301.63 39.6616L301.504 78.0682H515.467L515.843 39.6616Z" fill="#F5F5F5"/>
<path d="M489.901 54.2226C494.611 54.1836 498.428 54.0397 498.427 53.901C498.426 53.7624 494.607 53.6816 489.897 53.7205C485.186 53.7595 481.369 53.9034 481.37 54.042C481.371 54.1807 485.191 54.2615 489.901 54.2226Z" fill="#263238"/>
<path d="M489.9 58.4904C494.61 58.4514 498.427 58.3074 498.426 58.1688C498.425 58.0301 494.606 57.9493 489.896 57.9883C485.186 58.0273 481.368 58.1713 481.369 58.3099C481.37 58.4485 485.19 58.5293 489.9 58.4904Z" fill="#263238"/>
<path d="M489.9 62.8837C494.61 62.8448 498.427 62.7008 498.426 62.5622C498.425 62.4235 494.606 62.3427 489.896 62.3817C485.186 62.4206 481.368 62.5645 481.369 62.7032C481.371 62.8418 485.19 62.9226 489.9 62.8837Z" fill="#263238"/>
<path d="M349.414 357.332L350.292 355.449C351.546 356.579 353.552 357.332 355.685 357.332C358.444 357.332 359.698 356.202 359.698 354.821C359.698 350.805 349.79 353.315 349.79 347.291C349.79 344.78 351.797 342.647 356.061 342.647C357.942 342.647 359.949 343.149 361.328 344.153L360.576 346.036C359.196 345.157 357.566 344.655 356.061 344.655C353.302 344.655 352.047 345.785 352.047 347.291C352.047 351.307 361.955 348.797 361.955 354.821C361.955 357.332 359.949 359.465 355.685 359.465C353.176 359.34 350.668 358.587 349.414 357.332Z" fill="#263238"/>
<path d="M363.837 353.064C363.837 349.424 366.596 346.789 370.358 346.789C372.616 346.789 374.372 347.667 375.375 349.424L373.619 350.554C372.867 349.299 371.613 348.797 370.233 348.797C367.85 348.797 365.969 350.554 365.969 353.19C365.969 355.825 367.85 357.583 370.233 357.583C371.613 357.583 372.741 357.081 373.619 355.825L375.375 356.955C374.372 358.712 372.616 359.591 370.358 359.591C366.596 359.34 363.837 356.704 363.837 353.064Z" fill="#263238"/>
<path d="M388.168 351.684V359.089H386.036V357.457C385.283 358.587 383.904 359.214 382.022 359.214C379.263 359.214 377.507 357.708 377.507 355.574C377.507 353.566 378.761 351.935 382.524 351.935H386.036V351.432C386.036 349.55 384.907 348.42 382.775 348.42C381.27 348.42 379.765 348.922 378.887 349.801L378.009 348.169C379.263 347.165 381.144 346.538 383.151 346.538C386.161 346.663 388.168 348.295 388.168 351.684ZM385.91 355.449V353.692H382.398C380.141 353.692 379.514 354.57 379.514 355.574C379.514 356.829 380.517 357.583 382.273 357.583C384.029 357.583 385.283 356.829 385.91 355.449Z" fill="#263238"/>
<path d="M403.97 352.06V359.214H401.713V352.311C401.713 349.926 400.459 348.671 398.326 348.671C395.944 348.671 394.439 350.052 394.439 352.813V359.214H392.181V346.789H394.313V348.671C395.191 347.416 396.821 346.663 398.703 346.663C401.838 346.663 403.97 348.42 403.97 352.06Z" fill="#263238"/>
<path d="M419.898 352.06V359.214H417.641V352.311C417.641 349.926 416.387 348.671 414.255 348.671C411.872 348.671 410.367 350.052 410.367 352.813V359.214H408.109V346.789H410.241V348.671C411.119 347.416 412.75 346.663 414.631 346.663C417.766 346.663 419.898 348.42 419.898 352.06Z" fill="#263238"/>
<path d="M423.661 343.023C423.661 342.145 424.288 341.517 425.166 341.517C426.044 341.517 426.671 342.145 426.671 342.898C426.671 343.776 426.044 344.404 425.166 344.404C424.288 344.404 423.661 343.776 423.661 343.023ZM424.037 346.789H426.295V359.214H424.037V346.789Z" fill="#263238"/>
<path d="M442.223 352.06V359.214H439.965V352.311C439.965 349.926 438.711 348.671 436.579 348.671C434.196 348.671 432.691 350.052 432.691 352.813V359.214H430.433V346.789H432.566V348.671C433.443 347.416 435.074 346.663 436.955 346.663C440.091 346.663 442.223 348.42 442.223 352.06Z" fill="#263238"/>
<path d="M458.276 346.789V357.457C458.276 361.85 456.019 363.858 451.88 363.858C449.622 363.858 447.365 363.231 445.985 361.975L447.114 360.218C448.243 361.222 449.999 361.85 451.88 361.85C454.765 361.85 456.144 360.469 456.144 357.708V356.704C455.015 357.959 453.51 358.587 451.755 358.587C448.243 358.587 445.484 356.202 445.484 352.562C445.484 349.048 448.243 346.538 451.755 346.538C453.636 346.538 455.266 347.165 456.27 348.546V346.663H458.276V346.789ZM456.144 352.688C456.144 350.303 454.388 348.671 451.88 348.671C449.372 348.671 447.616 350.303 447.616 352.688C447.616 355.072 449.372 356.704 451.88 356.704C454.263 356.704 456.144 355.072 456.144 352.688Z" fill="#263238"/>
<path d="M461.537 357.708C461.537 356.83 462.289 356.076 463.167 356.076C464.045 356.076 464.672 356.704 464.672 357.708C464.672 358.587 463.92 359.34 463.167 359.34C462.164 359.34 461.537 358.712 461.537 357.708Z" fill="#263238"/>
<path d="M466.805 357.708C466.805 356.83 467.557 356.076 468.435 356.076C469.313 356.076 469.94 356.704 469.94 357.708C469.94 358.587 469.187 359.34 468.435 359.34C467.557 359.34 466.805 358.712 466.805 357.708Z" fill="#263238"/>
<path d="M472.072 357.708C472.072 356.83 472.825 356.076 473.703 356.076C474.581 356.076 475.208 356.704 475.208 357.708C475.208 358.587 474.455 359.34 473.703 359.34C472.825 359.34 472.072 358.712 472.072 357.708Z" fill="#263238"/>
<path d="M336.872 230.063V237.844H344.648V230.063V222.281H336.872V230.063Z" fill="#263238"/>
<path d="M344.648 183.498H336.872V191.28H344.648V183.498Z" fill="#263238"/>
<path d="M392.683 269.097H384.907V276.879H392.683V269.097Z" fill="#263238"/>
<path d="M344.648 199.061V206.843H336.872V214.625H344.648V222.281H352.424H360.2V230.063H367.975V222.281H375.751V214.625V206.843H367.975V214.625H360.2H352.424V206.843V199.061V191.28H344.648V199.061Z" fill="#263238"/>
<path d="M360.2 183.498H352.424V191.28H360.2H367.975V183.498H360.2Z" fill="#263238"/>
<path d="M395.066 246.003H399.33V238.221H395.066H390.927V246.003H395.066Z" fill="#263238"/>
<path d="M375.751 191.28H367.975V199.061H375.751V191.28Z" fill="#263238"/>
<path d="M430.057 222.281H422.281V230.063H430.057V222.281Z" fill="#263238"/>
<path d="M437.833 136.808H430.057V144.589H437.833V136.808Z" fill="#263238"/>
<path d="M391.178 199.061V191.28H398.954V183.498H391.178V175.716H383.527V183.498H375.751V191.28H383.527V199.061V206.843V214.625V222.281H391.178V214.625V206.843H398.954V199.061H391.178Z" fill="#263238"/>
<path d="M430.057 276.753H437.833V268.971H430.057H422.281V276.753H430.057Z" fill="#263238"/>
<path d="M422.281 136.808H414.505V144.589H422.281V136.808Z" fill="#263238"/>
<path d="M420.4 199.061V191.28H412.624V183.498H404.848V191.28V199.061H397.072V206.843H404.848H412.624V199.061H420.4Z" fill="#263238"/>
<path d="M464.171 183.498H456.395V191.28H464.171V183.498Z" fill="#263238"/>
<path d="M383.653 222.281H375.877V230.063H383.653V222.281Z" fill="#263238"/>
<path d="M414.505 175.716V167.935H422.281V160.153H430.057H437.833V152.371H430.057V144.589H422.281V152.371H414.505V160.153H406.729V167.935H398.954V175.716H406.729H414.505Z" fill="#263238"/>
<path d="M414.505 230.063V222.281H422.281V214.625H414.505H406.729V222.281H398.954V230.063H406.729H414.505Z" fill="#263238"/>
<path d="M437.833 261.19V253.408H430.057H422.281V245.626H414.505V253.408H406.73V261.19H398.954H391.178V268.971H398.954H406.73H414.505V261.19H422.281V268.971H430.057V261.19H437.833Z" fill="#263238"/>
<path d="M406.729 144.589V136.808H398.954H391.178V144.589H383.527V152.371H391.178H398.954V144.589H406.729Z" fill="#263238"/>
<path d="M406.729 152.371H398.954V160.153H406.729V152.371Z" fill="#263238"/>
<path d="M426.169 183.498H418.393V191.28V199.061V206.843H426.169H433.945V199.061H426.169V191.28H433.945V183.498H441.721V175.716H433.945V167.935H426.169V175.716V183.498Z" fill="#263238"/>
<path d="M398.954 160.153H391.178V167.934H398.954V160.153Z" fill="#263238"/>
<path d="M422.281 237.844V245.626H430.057H437.833V237.844H445.609H453.385V230.063H445.609H437.833H430.057V237.844H422.281Z" fill="#263238"/>
<path d="M464.171 206.843H456.395V214.625H464.171V206.843Z" fill="#263238"/>
<path d="M437.833 214.625H430.057V222.407H437.833V214.625Z" fill="#263238"/>
<path d="M457.273 191.28H449.497H441.721V199.061H449.497V206.843H457.273V199.061V191.28Z" fill="#263238"/>
<path d="M453.385 214.625H445.609V222.407H453.385V214.625Z" fill="#263238"/>
<path d="M367.975 261.315H391.303V230.063H360.074V237.844H352.424V245.626H360.074V253.408H352.424V261.19H360.074V261.315H360.2V268.971H352.424V276.753V284.535H360.2V276.753H367.975V268.971V261.315ZM385.283 236.087V255.542H365.843V236.087H385.283Z" fill="#263238"/>
<path d="M468.937 230.063H476.587V222.281H468.937H461.161H453.385V230.063H461.161H468.937Z" fill="#263238"/>
<path d="M468.937 199.061H476.587V191.28V183.498H468.937V191.28V199.061Z" fill="#263238"/>
<path d="M407.106 238.221H399.33V246.003V253.784H407.106V246.003V238.221Z" fill="#263238"/>
<path d="M484.363 230.063H476.587V237.844H484.363V230.063Z" fill="#263238"/>
<path d="M484.363 214.625V206.843H476.587V214.625V222.281H484.363V214.625Z" fill="#263238"/>
<path d="M344.648 268.971H336.872V276.753V284.535H344.648V276.753V268.971Z" fill="#263238"/>
<path d="M484.363 175.716V136.808H445.484V175.716H484.363ZM451.378 169.943V142.707H478.594V169.943H451.378Z" fill="#263238"/>
<path d="M472.825 148.48H457.273V164.044H472.825V148.48Z" fill="#263238"/>
<path d="M484.363 245.626H445.484V284.535H484.363V245.626ZM451.378 278.636V251.4H478.594V278.636H451.378Z" fill="#263238"/>
<path d="M472.825 257.299H457.273V272.862H472.825V257.299Z" fill="#263238"/>
<path d="M336.746 136.808V175.716H375.626V136.808H336.746ZM369.731 142.707V169.943H342.516V142.707H369.731Z" fill="#263238"/>
<path d="M363.962 148.48H348.41V164.044H363.962V148.48Z" fill="#263238"/>
<path d="M325.71 163.918C325.71 154.756 325.71 145.468 325.71 136.306C325.71 133.795 326.086 131.285 327.842 129.277C329.849 127.018 332.482 126.139 335.367 126.139C340.384 126.139 345.4 126.139 350.417 126.139C355.057 126.139 359.698 126.139 364.464 126.139C365.593 126.139 365.593 124.382 364.464 124.382C354.932 124.382 345.4 124.382 335.743 124.382C333.235 124.382 330.977 124.758 328.845 126.139C325.71 128.147 324.079 131.536 323.954 135.176C323.828 139.694 323.954 144.213 323.954 148.857C323.954 153.877 323.954 158.898 323.954 163.918C323.954 165.048 325.71 165.048 325.71 163.918Z" fill="#FF725E"/>
<path d="M361.955 297.588C352.8 297.588 343.519 297.588 334.364 297.588C331.855 297.588 329.347 297.211 327.34 295.454C325.083 293.446 324.205 290.81 324.205 287.924C324.205 282.903 324.205 277.883 324.205 272.862C324.205 268.218 324.205 263.574 324.205 258.805C324.205 257.675 322.449 257.675 322.449 258.805C322.449 268.344 322.449 277.883 322.449 287.547C322.449 290.057 322.825 292.316 324.205 294.45C326.211 297.588 329.598 299.22 333.235 299.345C337.75 299.471 342.265 299.345 346.905 299.345C351.922 299.345 356.939 299.345 361.955 299.345C363.084 299.345 363.084 297.588 361.955 297.588Z" fill="#FF725E"/>
<path d="M494.647 258.554C494.647 267.716 494.647 277.004 494.647 286.166C494.647 288.677 494.271 291.187 492.515 293.195C490.509 295.454 487.875 296.333 484.99 296.333C479.974 296.333 474.957 296.333 469.94 296.333C465.3 296.333 460.659 296.333 455.893 296.333C454.765 296.333 454.765 298.09 455.893 298.09C465.425 298.09 474.957 298.09 484.614 298.09C487.122 298.09 489.38 297.713 491.512 296.333C494.647 294.325 496.278 290.936 496.403 287.296C496.529 282.778 496.403 278.259 496.403 273.615C496.403 268.595 496.403 263.574 496.403 258.554C496.403 257.424 494.647 257.424 494.647 258.554Z" fill="#FF725E"/>
<path d="M456.395 126.139C465.55 126.139 474.831 126.139 483.987 126.139C486.495 126.139 489.004 126.516 491.01 128.273C493.268 130.281 494.146 132.917 494.146 135.804C494.146 140.824 494.146 145.844 494.146 150.865C494.146 155.509 494.146 160.153 494.146 164.922C494.146 166.052 495.901 166.052 495.901 164.922C495.901 155.383 495.901 145.844 495.901 136.18C495.901 133.67 495.525 131.411 494.146 129.277C492.139 126.139 488.753 124.507 485.116 124.382C480.601 124.256 476.085 124.382 471.445 124.382C466.428 124.382 461.412 124.382 456.395 124.382C455.266 124.507 455.266 126.139 456.395 126.139Z" fill="#FF725E"/>
<path d="M472.198 426.112H341.387C329.848 426.112 320.568 416.824 320.568 405.277V400.884C320.568 389.337 329.848 380.049 341.387 380.049H472.198C483.736 380.049 493.017 389.337 493.017 400.884V405.277C493.017 416.824 483.736 426.112 472.198 426.112Z" fill="#EBEBEB"/>
<path d="M353.803 398.876L350.919 406.658H349.539L347.282 400.758L345.024 406.658H343.644L340.76 398.876H342.139L344.397 405.026L346.78 398.876H347.909L350.166 405.026L352.424 398.876H353.803Z" fill="#263238"/>
<path d="M366.847 398.876L363.962 406.658H362.583L360.325 400.758L358.067 406.658H356.688L353.803 398.876H355.183L357.44 405.026L359.823 398.876H360.952L363.21 405.026L365.467 398.876H366.847Z" fill="#263238"/>
<path d="M379.89 398.876L377.006 406.658H375.626L373.368 400.758L371.111 406.658H369.731L366.847 398.876H368.226L370.484 405.026L372.867 398.876H373.996L376.253 405.026L378.511 398.876H379.89Z" fill="#263238"/>
<path d="M380.141 405.779C380.141 405.151 380.643 404.775 381.144 404.775C381.646 404.775 382.148 405.151 382.148 405.779C382.148 406.407 381.771 406.783 381.144 406.783C380.643 406.783 380.141 406.407 380.141 405.779Z" fill="#263238"/>
<path d="M383.151 405.904L383.778 404.775C384.405 405.277 385.534 405.528 386.537 405.528C387.791 405.528 388.419 405.151 388.419 404.524C388.419 402.767 383.527 404.273 383.527 401.261C383.527 399.88 384.781 398.876 386.788 398.876C387.791 398.876 388.92 399.127 389.673 399.629L389.046 400.758C388.293 400.256 387.541 400.131 386.788 400.131C385.534 400.131 384.907 400.633 384.907 401.261C384.907 403.143 389.798 401.637 389.798 404.649C389.798 406.03 388.544 406.909 386.412 406.909C385.032 406.783 383.778 406.406 383.151 405.904Z" fill="#263238"/>
<path d="M391.178 396.491C391.178 395.989 391.554 395.613 392.181 395.613C392.683 395.613 393.184 395.989 393.184 396.491C393.184 396.993 392.808 397.37 392.181 397.37C391.679 397.495 391.178 396.993 391.178 396.491ZM391.429 398.876H392.808V406.658H391.429V398.876Z" fill="#263238"/>
<path d="M399.957 406.281C399.581 406.658 398.828 406.783 398.201 406.783C396.696 406.783 395.693 405.905 395.693 404.398V400.131H394.439V399.001H395.693V397.244H397.072V399.001H399.33V400.131H397.072V404.273C397.072 405.151 397.574 405.528 398.327 405.528C398.703 405.528 399.079 405.402 399.455 405.151L399.957 406.281Z" fill="#263238"/>
<path d="M408.36 403.269H402.089C402.214 404.649 403.343 405.528 404.848 405.528C405.726 405.528 406.479 405.277 407.106 404.649L407.858 405.528C407.106 406.407 406.102 406.783 404.848 406.783C402.34 406.783 400.709 405.151 400.709 402.767C400.709 400.507 402.34 398.876 404.597 398.876C406.855 398.876 408.485 400.507 408.485 402.892C408.36 403.018 408.36 403.143 408.36 403.269ZM402.089 402.265H407.106C406.98 401.01 405.977 400.005 404.597 400.005C403.218 400.005 402.214 401.01 402.089 402.265Z" fill="#263238"/>
<path d="M421.905 398.876L419.02 406.658H417.641L415.383 400.758L413.126 406.658H411.746L408.862 398.876H410.241L412.499 405.026L414.882 398.876H416.01L418.268 405.026L420.525 398.876H421.905Z" fill="#263238"/>
<path d="M430.057 403.269H423.786C423.912 404.649 425.041 405.528 426.546 405.528C427.423 405.528 428.176 405.277 428.803 404.649L429.556 405.528C428.803 406.407 427.8 406.783 426.546 406.783C424.037 406.783 422.407 405.151 422.407 402.767C422.407 400.507 424.037 398.876 426.295 398.876C428.552 398.876 430.183 400.507 430.183 402.892C430.057 403.018 430.057 403.143 430.057 403.269ZM423.786 402.265H428.803C428.678 401.01 427.674 400.005 426.295 400.005C424.915 400.005 423.912 401.01 423.786 402.265Z" fill="#263238"/>
<path d="M440.091 402.767C440.091 405.151 438.46 406.783 436.203 406.783C435.074 406.783 434.071 406.407 433.443 405.528V406.783H432.064V395.864H433.443V400.131C434.071 399.252 435.074 398.876 436.203 398.876C438.46 398.876 440.091 400.382 440.091 402.767ZM438.711 402.767C438.711 401.135 437.582 400.005 436.077 400.005C434.572 400.005 433.443 401.135 433.443 402.767C433.443 404.398 434.572 405.528 436.077 405.528C437.582 405.528 438.711 404.524 438.711 402.767Z" fill="#263238"/>
<path d="M441.219 405.779C441.219 405.151 441.721 404.775 442.223 404.775C442.724 404.775 443.226 405.151 443.226 405.779C443.226 406.407 442.85 406.783 442.223 406.783C441.596 406.783 441.219 406.407 441.219 405.779Z" fill="#263238"/>
<path d="M444.229 402.767C444.229 400.507 445.985 398.876 448.368 398.876C449.748 398.876 450.876 399.503 451.504 400.507L450.375 401.135C449.873 400.382 449.121 400.005 448.243 400.005C446.738 400.005 445.609 401.135 445.609 402.767C445.609 404.398 446.738 405.528 448.243 405.528C449.121 405.528 449.873 405.151 450.375 404.398L451.504 405.026C450.876 406.155 449.748 406.658 448.368 406.658C445.985 406.783 444.229 405.151 444.229 402.767Z" fill="#263238"/>
<path d="M452.507 402.767C452.507 400.507 454.263 398.876 456.52 398.876C458.903 398.876 460.534 400.507 460.534 402.767C460.534 405.026 458.778 406.783 456.52 406.783C454.263 406.783 452.507 405.151 452.507 402.767ZM459.154 402.767C459.154 401.135 458.025 400.005 456.52 400.005C455.015 400.005 453.887 401.135 453.887 402.767C453.887 404.398 455.015 405.528 456.52 405.528C458.025 405.528 459.154 404.524 459.154 402.767Z" fill="#263238"/>
<path d="M475.333 402.265V406.783H473.953V402.516C473.953 401.01 473.201 400.256 471.947 400.256C470.567 400.256 469.564 401.135 469.564 402.892V406.909H468.184V402.641C468.184 401.135 467.432 400.382 466.178 400.382C464.798 400.382 463.795 401.261 463.795 403.018V407.034H462.415V399.252H463.795V400.382C464.296 399.629 465.3 399.127 466.428 399.127C467.557 399.127 468.56 399.629 469.062 400.507C469.689 399.629 470.693 399.127 472.072 399.127C474.079 398.876 475.333 399.88 475.333 402.265Z" fill="#263238"/>
<path d="M474.957 411.804C474.957 411.929 445.358 412.18 408.862 412.18C372.365 412.18 342.766 412.055 342.766 411.804C342.766 411.678 372.365 411.427 408.862 411.427C445.358 411.427 474.957 411.553 474.957 411.804Z" fill="#263238"/>
</g>
<defs>
<clipPath id="clip0_92_5120">
<rect width="563" height="552" fill="white"/>
</clipPath>
</defs>
</svg>
